
<svg xmlns="http://www.w3.org/2000/svg" version="1.1" xmlns:xlink="http://www.w3.org/1999/xlink" preserveAspectRatio="none" x="0px" y="0px" width="219px" height="259px" viewBox="0 0 219 259">
<defs>
<g id="Layer9_0_FILL">
<path fill="#CCCCCC" stroke="none" d="
M 76.25 121.95
Q 77.55 121.7 77.65 122.05 77.8 122.4 77.35 122.6 75.65 123.4 73.1 123.85
L 73.35 124.4 74.8 124.1
Q 75.25 124.65 75.95 126.2
L 80.7 135.7
Q 82.6 139.75 83.75 143.55 86.4 151.35 86.85 158.3 87.65 162.1 88.7 164.55 90.7 168.85 93 171.4
L 105.95 189.75
Q 108.15 193.3 111 196.75 113.15 198.8 116.65 197.6
L 123.15 194.1
Q 127.55 191.9 130.6 188.6
L 132.55 186.3
Q 132.85 186.5 133.8 186.55
L 134.5 184.75
Q 132.8 185.1 131.6 184.4
L 126.15 181.4
Q 123.45 180.1 123.6 178.15 124.6 165.15 125.25 152.1 125.55 151.4 124.2 148.15 123.3 145.9 121.3 142.5
L 116.5 138.6 115 139.2
Q 113.1 137.15 109.7 135.5 105.15 134.05 101.7 131.9 97.4 128.8 94.2 124.9
L 88.2 117.8
Q 87.8 117.35 88 116.9
L 88.3 116.65 87.5 115.85 85.7 117.65
Q 85.25 117.9 84.8 117.4 84.85 117 85.15 116.7 86 115.85 86.55 115.1 84.9 113.3 81.75 111.25 79.15 112.25 76.55 114.3 73.5 116.1 71 117.5 70.6 117.85 70.6 118.3
L 71.85 122.15
Q 72.1 122.9 72.5 122.85 75 122.25 76.25 121.95
M 110.2 142.15
Q 112.6 140.7 114.45 140.3 115.65 139.9 116 140.7
L 111.65 143.15
Q 116.9 150.7 120.75 158.85 122.75 157.7 124.3 156.2
L 124.1 162.8 121.5 160.6 106.9 173.7
Q 108.9 176.8 111.25 179.8
L 120.85 180.65
Q 122.6 180.75 120.9 181.3 117.9 181.5 111 180.65 107.9 177.25 105.7 174.05
L 100.8 166.25
Q 100.15 161.05 100.65 157.2
L 103.45 149.35
Q 105.25 145.85 108.95 143.1
L 110.2 142.15
M 93.85 170.55
L 97.3 168.1
Q 98 167.5 98.7 167.85
L 98.5 168 106.55 181.5
Q 106.8 181.55 106.85 181.6 107.15 181.8 106.65 182.05
L 102.85 182
Q 101.95 182 101.45 181.9
L 100.95 181.15 101.3 181.15 94.15 171.45
Q 94.05 171.45 93.95 171.4
L 93.6 170.9 93.85 170.55 Z"/>
</g>

<g id="Layer8_0_FILL">
<path fill="#FFCC99" stroke="none" d="
M 89.5 79.5
Q 86.9 82.45 85 87.15 83.15 91.85 86.3 96.85 88.2 99.3 95.45 103.15 100.8 104.4 105.4 104.2 112.75 103.4 115.65 98.9 120.1 93.4 117.55 85.4 114.1 79 110.7 77.8 107.45 75.8 99.2 75.5 92.25 76.5 89.5 79.5
M 107.05 90.25
Q 106.3 87.3 108.65 86.05 109.6 85.45 111.35 85.7 113.35 86.35 113.85 88.25 114.4 90.05 112.9 91.85 111.4 92.85 109.35 92.45 107.9 91.9 107.05 90.25
M 86 71.75
Q 88.6 72.15 91.55 71.5 92.4 71.05 93.15 70.65
L 92.6 70.1 92.2 70.3
Q 90.3 68.6 87.45 67.5 84.15 66.65 80.1 66.75
L 78.9 66.85
Q 80.2 67 80.45 67.35 81.05 68 80.85 68.9 80.7 69.75 79.65 70.2 78.5 70.6 76.95 70.4 75.35 70.4 74.7 69.45 74.25 68.65 74.8 67.9
L 72.05 69.5
Q 68.4 71.7 65.75 75.8 64.95 77.1 64.35 78.45 64.25 79.2 64.25 79.9 64.25 80 64.2 81.05 64.25 82.25 64.5 83.25 65.25 86.35 67.8 86.35 67.85 86.35 68.9 85.05 70.3 83.35 71.35 82.15 72.15 81.15 72.85 80.45 73.6 79.05 74.1 78.65
L 82.4 72.2
Q 84.3 71.1 86 71.75 Z"/>
</g>

<g id="Layer7_0_FILL">
<path fill="#CC3366" stroke="none" d="
M 122 234.65
Q 123.05 232.05 124.1 229.7
L 122.3 229.7 122.3 229.75
Q 122.1 230.05 121.45 229.95 117.9 229.5 114.1 228.85 112.9 228.7 112.05 228.95 111.05 229.35 110.75 230.25
L 110.65 233.5
Q 110.45 236.75 110.85 239.7 111.25 240.5 112.25 240.65
L 116.25 241.6
Q 117.9 242.15 117.65 242.85
L 117.4 243.5 118.55 244.15
Q 118.55 243.75 118.75 243.25
L 122 234.65
M 147.6 209.1
Q 147.6 209 147.55 208.9
L 146.55 210.4
Q 146.6 210.45 146.65 210.55 146.95 210.8 146.15 211.8
L 141.4 214.65
Q 136.75 217.2 132 219.95 130.9 220.75 130.15 221.75 129 222.9 128.2 224.45 125.45 229.75 123.25 235.3 121.5 239.2 120.25 243 119.8 244.15 120.7 244.5 121.35 244.8 122.85 244.9 127.65 244.7 131.75 243.5
L 146.15 239.35 156.15 234.75
Q 157.05 234.55 157.55 235.1
L 159.35 234.15
Q 158.9 233.7 158.6 233.1 157.8 231.4 156.3 228.45 154.75 225.5 152.8 221.05
L 147.6 209.1
M 155.8 186.5
Q 155.9 186.45 156 186.4 156.55 186.55 155.7 188.1
L 153.4 192.4
Q 151.65 195.05 150.25 198.6
L 148.25 202.5
Q 147.65 203.9 147.75 204.9 147.85 205.55 148.4 207.35
L 151.35 214.95
Q 154.6 223.1 159.1 230.95 159.45 231.75 160.4 232.25 161.45 232.8 162.65 232.15
L 168.8 228.3
Q 171.35 226.65 174.05 224.45 176.7 222.25 179.3 218.95 182.55 215.45 185.05 211.7 186.05 210 187.45 208.75 187.75 208.75 188 208.85
L 189.5 206.4
Q 188.7 206.3 188.1 205.9 187.3 205.6 185.45 204.15 176.2 196.3 168.45 191.05 164.55 188.05 159.3 185.2 158.4 184.35 157.7 183.6
L 155.8 186.5
M 91.25 178.95
Q 90.9 179.8 91.35 179.85
L 94.7 180.65 91.8 177.05 91.25 178.95
M 95 171.2
Q 94.7 171.45 94.15 171.45
L 101.3 181.15 102.1 181.15
Q 105.65 181.35 106.55 181.5
L 98.5 168 95 171.2
M 127.75 131.5
Q 124.75 130.75 122.7 131.6
L 117.15 134.05 119.65 136.45 120.15 135.55
Q 120.7 135.15 121.2 135.4 121.4 135.7 121.3 135.95
L 120.5 137.25
Q 119.95 138.2 121.1 139.85 122.3 141.65 123.6 144.45 123.15 142 123.6 141.4 124.05 140.8 124.1 141.85 124.2 143.15 124.65 145.1
L 124.75 145.9
Q 126.85 149.2 127.4 152.55
L 127.45 156.9
Q 127.2 163.85 126.85 171.05
L 126.6 176.95
Q 126.5 178.1 126.95 178.45 129 180.15 131.25 181.45 133.5 182.7 135.5 182.25 143.15 179.15 150.35 175 151.75 174.25 152.9 171.95 156.3 164.8 158.7 156.7 159.75 154.45 159 151.85
L 156.15 144.2
Q 155.5 142.85 153.2 141.75 138.65 134.15 127.75 131.5
M 72.55 193.2
Q 70.55 192.85 66.7 193.5 57.8 196.15 53.85 198.55 49.5 201.4 49.05 202.75 48.6 204.1 50.35 205.45
L 105.45 237.9 106.3 238.3
Q 108.35 239.25 108.55 240.2
L 109.35 240.55
Q 109.35 240.35 109.35 240.15 109.4 238.65 109.35 236.5 109.3 234.35 109.65 229.5 110 228.6 110.85 228 110.9 228 110.95 227.95
L 109.4 223.85
Q 109.25 223.9 108.85 223.65 108.05 222.55 107.55 221.35 102.4 209.35 99.55 204.45 97.15 200.55 92 198.55 87.9 197 83.55 197.2 82.1 197.2 80.55 197.6 80.3 197.8 80.65 198.05
L 85.1 203
Q 91 210.1 96.5 215.95
L 102.85 221.95
Q 103.25 222.55 102.05 222.2 98.45 219.25 94.8 215.55 89.1 209.75 85.15 204.8 80.4 199.05 75.7 195 73.9 193.45 72.55 193.2
M 126.9 35.7
Q 125.3 32.65 122.45 29 119.35 24.6 116.5 21.6 113.65 18.65 112 17.6 106.15 16.35 103.1 16.3 95.55 15.95 94.85 16.1 92.15 16.3 91.45 16.75 90.45 17.35 90.4 19.35 90.6 21.95 90.9 23 91.5 24.8 92.95 26.75
L 96.55 30.45
Q 97.8 31.75 97.6 33.3
L 96.95 41.45
Q 96.2 45.85 95.85 50.45 95.65 52.6 95.3 53.9 94.7 54.45 94.45 53.65
L 95 45.9
Q 94.3 46.05 92.6 46.25 86.45 47 82.1 46.35 82.15 47.9 81.35 47.45
L 80.45 46.55
Q 79.9 46.05 79.6 46 79.3 45.9 78.7 45.35 78.1 44.8 76.8 43.9 75.5 43 75.5 43.35 74.65 45.6 76.3 48.5 80.8 53.7 83.5 56.35 86.25 59.05 87.9 61.05 95.65 61.35 102.5 64.15 103.35 66.45 103.6 67.4 103.95 67.35 104.25 67.35 109.2 66.75 114.85 67.1 118.8 67.25 122.6 67.6
L 122.8 63.9
Q 123.55 59.45 124.45 55
L 126.45 42.75
Q 126.95 39.95 127.2 37.6
L 127.2 36.9
Q 127.2 36.4 126.9 35.7
M 172.95 90.2
Q 169.65 87.5 165.45 84.45 161.35 81.9 157.65 79.9 156.35 79.35 155.7 79.95
L 140.7 96.3
Q 140.25 96.35 140.45 96.05
L 155.05 79.05
Q 155.35 78.65 156 78.3
L 154.8 77.55
Q 153.65 78.5 153.2 78.85 153.1 79 152.9 78.9 146.45 75.15 137.1 72.1 136.65 71.8 135.75 72.3
L 133.65 72.7
Q 132.1 73.15 131.55 72.6 130.75 71.95 130.4 70.95 130.3 70.7 128.9 70.25 124.45 69.5 119.55 69.15 113.15 68.65 109.9 68.85 100.3 69 94.85 71.95
L 92.45 73.1
Q 91.9 73.35 90.5 73.45 86.9 73.6 84.4 73 83 73.1 81.8 74
L 74.75 79.7
Q 73.7 80.85 72.75 82.95 71 87.05 69.45 90.25 67.95 93.4 66.5 96.25 65 99.05 62.7 102.05 61.2 104.05 58.75 106.05
L 53.75 110
Q 50.35 112.5 47.8 113.6
L 45.95 114.45
Q 39.05 115.7 36.3 116.6 30.85 118.85 28.1 120.4 26.05 121.6 24.1 122.9 22.25 124.2 21.05 125.3 18.8 127.25 18.35 129
L 17.35 133.7
Q 17.1 136.3 19.25 137.8 20.6 138.85 21.7 138.55 23.65 138.15 25.15 136.65 26.3 134.5 26.7 131.65 27.1 128.85 28.45 126.75 29.8 124.65 32.5 122.9 34.4 121.8 37.05 121.55 39.55 121.1 42.7 121 45.8 121.5 48.65 121.55
L 53.95 120.65 59.05 119.15 65.3 115.65 69.55 112.25 71.15 111.55 71.05 112.25 68.2 114.75 64.05 117.6 57 120.95 52.3 121.95
Q 51.7 122.5 50.9 123.45 47.2 127.85 43.1 131.45 38.4 135.3 33.7 139.2 31.9 141.65 31.05 143.55 30.15 145.45 30.9 146.8 31.6 148.05 33.25 148.9 34.85 149.75 37.3 148.65 39.35 147.25 40.85 145.65
L 54.55 128.9
Q 56.75 125.95 59.4 123.65 61.1 122.25 63.1 121.6 63.1 121.75 63.05 121.95
L 63.55 121.9 63.55 121.15
Q 63.7 121 64 121.1 64.25 121.2 64.3 121.5 64.4 123.6 64.25 125.85 63.7 129.95 63.15 131 61.85 133.5 60.15 135.45 58.85 136.85 57.4 137.95 56.8 138.6 56.8 139.1 57 139.65 57.25 139.85 58.65 140.35 60.1 140.35 61.05 140.45 62.05 140.25 63.4 139.45 64.55 138.25 66 136.5 66.9 134.65
L 69.05 130.25
Q 69.1 130.15 69.15 130.1 69.35 129.8 69.55 129.75
L 71.45 124.15
Q 70.8 124.25 70.3 124.25 69.6 124.3 69.2 122.45
L 68.4 118.8
Q 68.15 117.6 69 116.45 69.35 115.85 74.8 113.1
L 80.15 109.5
Q 81.1 108.7 82.5 108.9 86.4 111.15 87.75 112.7
L 88.95 113.9
Q 89.15 114.2 88.65 114.7
L 88.15 115.2 89.1 116.1 89.15 116.05 89.8 116.8 91 116.9
Q 91.2 116.6 92.2 116.65
L 97.25 116.75
Q 100 116.65 101.65 116.1 103.6 115.85 107.4 114.15 108.55 113.6 109.45 112.7 110.3 111.95 110.05 113.15 110.1 114.15 107.55 115.65 106.75 115.9 106.05 116.15
L 107.5 117.1
Q 108.25 117.1 109 117.6
L 112.4 119.65
Q 113.1 120.35 114.5 120.75
L 117.85 121.95 122.9 125.5
Q 124 122.25 125.2 120.1 125.6 119.25 126.55 119.4 133.45 121.2 138.35 123.6 144.1 126.75 146.25 129.45
L 145.25 133.85
Q 144.35 134.1 144.4 133
L 145.05 130.2
Q 145.15 129.6 144.9 129.4 141.5 126.65 137.8 124.65 133.35 122.4 126.95 120.55 126.4 120.35 126 120.75
L 123.6 127.15
Q 123.2 128.1 123.6 128.2
L 125.15 128.35
Q 135.45 130.5 145.6 135.5 152.05 138.3 157.25 140.9 158.65 141.85 159.15 143.4 162.65 151.45 162.45 153.85 162.35 155.75 161.65 157.1 158.8 165.85 155.25 173.3
L 155.7 177.6
Q 155.95 177.55 156.25 177.95 156.8 181.15 160 184.25 168.1 188.7 173.75 193.1
L 188.2 203.9
Q 189.6 204.95 190.6 204.35 192.8 203.05 194.9 200.65 199.55 195.1 203.35 179.15
L 205.05 171.1
Q 205.05 170.15 206 169.3
L 206 166.55
Q 205.15 167.25 204 167.65 202.25 168.4 200.25 167.95
L 165.85 159.85
Q 163.55 159.25 164.4 158.8 165 158.5 168.55 159.3
L 200.3 166.45
Q 202.6 166.65 204.05 165.45 205.2 164.45 205.25 161.6 205.35 142.5 201.55 128.95
L 197.45 116.3
Q 197.2 115.65 195.95 115.85
L 188.25 117.15 162.35 122.95
Q 159.5 123.55 159.7 122.95 159.75 122.6 160.7 122.25
L 181.75 117.45
Q 188.65 115.9 195.95 114.6 196.4 114.5 197 114.45
L 196.25 113.65
Q 196.15 113.7 196 113.75 194.95 114 194.5 113.8 193.5 111.55 191.9 109.2 190.05 106.5 186.95 103.2 183.25 99.05 180.05 96.2 176.95 93.1 172.95 90.2
M 83.85 86.95
Q 85.85 81.95 88.7 78.75 91.6 75.6 99 74.5 107.9 74.8 111.35 76.95 115 78.2 118.7 85.05 121.45 93.65 116.65 99.55 113.55 104.35 105.65 105.2 100.75 105.4 95.05 104.1 87.3 99.95 85.25 97.35 81.85 91.95 83.85 86.95 Z"/>
</g>

<g id="Layer5_0_FILL">
<path fill="#CCCCCC" stroke="none" d="
M 134.2 185.5
L 134.5 184.75
Q 134.2 184.8 133.9 184.85 134.05 185.15 134.2 185.5
M 110.9 179.35
Q 110.65 176.9 110.1 174.6 109.75 173.35 109.2 171.65
L 106.9 173.7
Q 108.75 176.55 110.9 179.35
M 121.3 142.5
L 120.65 142
Q 121 142.35 121.6 143 121.45 142.75 121.3 142.5
M 116.5 138.65
Q 116.6 138.7 116.7 138.75
L 116.5 138.6 116.5 138.65
M 107.25 134.65
Q 106.95 134.55 106.7 134.45 106.7 134.5 106.75 134.6 106.8 134.7 107.05 134.65 107.15 134.65 107.25 134.65
M 101.7 131.9
Q 101.65 131.9 101.6 131.85 101.75 132.15 101.9 132.55 102 132.45 102.1 132.4 102.15 132.3 102.25 132.25 102 132.1 101.7 131.9 Z"/>

<path fill="#BABABA" stroke="none" d="
M 121.7 143.25
Q 121.65 143.15 121.6 143.05
L 121.6 143
Q 121 142.35 120.65 142 120.55 141.9 120.5 141.8 119.25 140.5 117.35 139.2 117.05 139 116.7 138.75 116.6 138.7 116.5 138.65 114.75 137.55 112.35 136.3 109.1 134.6 108.3 134.6 107.85 134.6 107.25 134.65 107.15 134.65 107.05 134.65 106.8 134.7 106.75 134.6 106.7 134.5 106.7 134.45 106.55 134.15 106.45 133.95 106 133.35 105 132.45 103.3 131.5 102.25 132.25 102.15 132.3 102.1 132.4 102 132.45 101.9 132.55 101.75 132.15 101.6 131.85 101.3 131.15 101.05 130.65 100.65 129.7 99.6 128.6 98.9 127.85 97.35 126.55 95.5 124.95 94.85 124.35 93.45 123.05 92.6 121.9 92.2 121.35 91.6 119.75 90.95 118.1 90.6 117.6 89.15 116.3 88.05 116.4 87.6 116.4 87.2 116.65 86.7 117 86.45 117.6 86.15 118.15 86.15 118.6 86.15 120.85 87.5 122.8 88.45 124.1 90.7 126.1 92.55 127.7 92.65 127.8 93.75 128.8 94.6 129.7 96.75 132 97.95 134.6 98.5 135.8 99.7 138.45 100.75 140.85 101.4 142.6 102.95 146.55 103.4 149.45 103.5 150.1 103.55 150.65 103.95 155.95 105.25 160.55 106 163.25 107.8 167.85 108.6 169.95 109.2 171.65 109.75 173.35 110.1 174.6 110.65 176.9 110.9 179.35 111 180 111 180.65 111.1 181.8 111.1 183 111.1 184.15 110.5 189.7 110.2 192.5 109.9 195.1
L 109.9 195.4
Q 109.9 195.5 109.9 195.65 109.9 196.3 110.05 196.8 110.4 198.15 111.7 198.4 111.55 198.95 111.55 199.8
L 116.95 199.8
Q 117.05 199.7 117.15 199.65 117.5 199.5 118 199.5 118.3 199.55 118.85 199.65 119.35 199.65 119.7 199.5 120.3 199.2 120.9 198.35 121.45 197.45 121.6 197.25 122.05 196.65 123.55 196.05 123.65 196 124.65 195.65 125.25 195.45 125.5 195.3 126.8 194.6 127.45 194 127.8 193.7 128.15 193.15 128.45 192.65 128.8 192.35 129.4 191.95 130.65 191.45 133.05 190.5 133.85 189.4 134.2 188.9 134.3 188.25 134.4 187.7 134.4 186.85 134.4 186.15 134.2 185.5 134.05 185.15 133.9 184.85 133.5 184.15 132.85 183.55 131.7 182.6 129.35 181.7 126.85 180.85 125.9 180.45 124.3 179.7 124.3 178.8 124.3 178.4 125.15 175.35 126 172.15 126.4 171.1
L 126.4 160.8
Q 126.55 158.6 126.85 157.75 127 157.4 127 157.1 127.1 156.65 127.1 155.65 127.1 154.6 125.35 149.95 123.55 145.3 122.85 144.5 122.35 144 121.7 143.25
M 80.2 111
Q 79.1 111.25 78.9 112.65 78.85 112.95 78.85 113.3 78.85 113.4 79.4 114.1 80 114.9 80.8 115.6 83.05 117.7 85 117.7 85.1 117.7 85.2 117.7 85.5 117.65 85.8 117.6 86.35 117.4 86.75 116.9 87.05 116.55 87.2 116.2 87.3 115.85 87.3 115.45 87.3 114.75 86 113.55 84.65 112.3 83.1 111.55 81.3 110.7 80.2 111 Z"/>
</g>

<g id="Layer4_0_FILL">
<path fill="#660033" stroke="none" d="
M 122.3 229.75
Q 122.7 229.3 121.75 228.95 119.4 228.4 117.05 228.05 114.75 227.65 113.1 227.5 111.7 227.45 110.85 228 110 228.6 109.65 229.5 109.3 234.35 109.35 236.5 109.4 238.65 109.35 240.15 109.3 241.65 110.05 242.15 112.55 243.2 114.7 243.9 116.85 244.55 117.2 244
L 117.65 242.85
Q 117.9 242.15 116.25 241.6
L 112.25 240.65
Q 111.25 240.5 110.85 239.7 110.45 236.75 110.65 233.5
L 110.75 230.25
Q 111.05 229.35 112.05 228.95 112.9 228.7 114.1 228.85 117.9 229.5 121.45 229.95 122.1 230.05 122.3 229.75
M 146.15 211.8
Q 146.95 210.8 146.65 210.55 146.5 210.05 145.1 210.9 143.25 212.05 140.3 213.7 131.4 218.5 130.95 219 129.9 219.95 128.95 221 127.7 222.3 126.85 223.95 124.4 228.7 122 234.65
L 118.75 243.25
Q 118.2 244.75 119.15 245.65 120.6 246.65 122.25 246.85 125.65 247.85 132.15 246.3 139.8 244.55 147.05 241.85 152.1 240 155.2 238.2 158.3 236.45 157.85 235.5 157.35 234.5 156.15 234.75
L 146.15 239.35 131.75 243.5
Q 127.65 244.7 122.85 244.9 121.35 244.8 120.7 244.5 119.8 244.15 120.25 243 121.5 239.2 123.25 235.3 125.45 229.75 128.2 224.45 129 222.9 130.15 221.75 130.9 220.75 132 219.95 136.75 217.2 141.4 214.65
L 146.15 211.8
M 153.4 192.4
L 155.7 188.1
Q 156.55 186.55 156 186.4 155.2 186.7 154.7 187.35
L 151.6 192.9
Q 149.05 197.9 146.65 202.75 146.45 203.65 146.5 204.3 146.7 206.5 147.6 209.1
L 152.8 221.05
Q 154.75 225.5 156.3 228.45 157.8 231.4 158.6 233.1 159.35 234.8 161.4 235 162.5 235.1 163.65 234.5 167 232.5 170.2 230.15 176.55 226.3 181.9 220.3 185.1 216.95 188 211.8
L 189.1 210.15
Q 189.05 208.9 187.45 208.75 186.05 210 185.05 211.7 182.55 215.45 179.3 218.95 176.7 222.25 174.05 224.45 171.35 226.65 168.8 228.3
L 162.65 232.15
Q 161.45 232.8 160.4 232.25 159.45 231.75 159.1 230.95 154.6 223.1 151.35 214.95
L 148.4 207.35
Q 147.85 205.55 147.75 204.9 147.65 203.9 148.25 202.5
L 150.25 198.6
Q 151.65 195.05 153.4 192.4
M 102.85 182
L 106.65 182.05
Q 107.15 181.8 106.85 181.6 106.55 181.4 102.1 181.15
L 100.95 181.15 101.45 181.9
Q 101.95 182 102.85 182
M 94.8 180.65
L 91.35 179.85
Q 90.9 179.8 91.25 178.95
L 91.8 176.95 90.75 175.25
Q 89.55 177.65 88.9 180.3 88.35 182.15 89.4 182.35 91.2 182.7 94.35 182.55
L 95.95 182.45 94.8 180.65
M 95 171.2
L 98.45 168.25
Q 98 167.5 97.3 168.1
L 93.85 170.55 93.6 170.9 93.95 171.4
Q 94.65 171.5 95 171.2
M 110.2 142.15
L 108.95 143.1
Q 105.25 145.85 103.45 149.35
L 100.65 157.2
Q 100.15 161.05 100.8 166.25
L 105.7 174.05
Q 107.9 177.25 111 180.65 117.9 181.5 120.9 181.3 122.6 180.75 120.85 180.65
L 111.25 179.8
Q 108.9 176.8 106.9 173.7
L 121.5 160.6 124.1 162.8 124.3 156.2
Q 122.75 157.7 120.75 158.85 116.9 150.7 111.65 143.15
L 116 140.7
Q 115.65 139.9 114.45 140.3 112.6 140.7 110.2 142.15
M 89.15 116.05
L 88 116.9
Q 87.8 117.35 88.2 117.8
L 94.2 124.9
Q 97.4 128.8 101.7 131.9 105.15 134.05 109.7 135.5 113.1 137.15 115 139.2
L 117.4 138.25 116.25 137.1
Q 114.35 134.85 110.95 133.65 107.6 132.4 101.95 128.95 98.85 126.75 96.35 123.9
L 89.15 116.05
M 109 117.6
Q 108.25 117.1 107.5 117.1 106.75 117.55 108.15 118.1 109.05 118.5 111.7 120.2 112.15 120.85 113.9 121.65
L 116.95 122.25
Q 118.25 122.45 117.85 121.95
L 114.5 120.75
Q 113.1 120.35 112.4 119.65
L 109 117.6
M 107.55 115.65
Q 110.1 114.15 110.05 113.15 110.3 111.95 109.45 112.7 108.55 113.6 107.4 114.15 103.6 115.85 101.65 116.1 100 116.65 97.25 116.75
L 92.2 116.65
Q 91.2 116.6 91 116.9
L 91.95 117.7
Q 95.65 117.95 99.8 117.7 102.9 117.25 107.55 115.65
M 126.55 119.4
Q 125.6 119.25 125.2 120.1 123.75 122.7 122.4 126.95 122.15 128.3 121.65 129.2 118.85 131.45 116.05 132.7 115.25 133.2 115.35 133.75 115.8 134.55 117.15 134.05
L 122.7 131.6
Q 124.75 130.75 127.75 131.5 138.65 134.15 153.2 141.75 155.5 142.85 156.15 144.2
L 159 151.85
Q 159.75 154.45 158.7 156.7 156.3 164.8 152.9 171.95 151.75 174.25 150.35 175 143.15 179.15 135.5 182.25 133.5 182.7 131.25 181.45 129 180.15 126.95 178.45 126.5 178.1 126.6 176.95
L 126.85 171.05
Q 127.2 163.85 127.45 156.9
L 127.4 152.55
Q 126.85 149.2 124.75 145.9
L 124.65 145.1
Q 124.2 143.15 124.1 141.85 124.05 140.8 123.6 141.4 123.15 142 123.6 144.45 122.3 141.65 121.1 139.85 119.95 138.2 120.5 137.25
L 121.3 135.95
Q 121.4 135.7 121.2 135.4 120.7 135.15 120.15 135.55
L 119.2 137.3
Q 118.65 138.1 119.2 139.05 122.85 144.85 124.2 148.15 125.55 151.4 125.25 152.1 124.6 165.15 123.6 178.15 123.45 180.1 126.15 181.4
L 131.6 184.4
Q 133.1 185.25 135.5 184.45 143.85 181.65 152.4 176.4 153.85 175.7 154.95 173.95 158.7 166.2 161.65 157.1 162.35 155.75 162.45 153.85 162.65 151.45 159.15 143.4 158.65 141.85 157.25 140.9 152.05 138.3 145.6 135.5 135.45 130.5 125.15 128.35
L 123.6 128.2
Q 123.2 128.1 123.6 127.15
L 126 120.75
Q 126.4 120.35 126.95 120.55 133.35 122.4 137.8 124.65 141.5 126.65 144.9 129.4 145.15 129.6 145.05 130.2
L 144.4 133
Q 144.35 134.1 145.25 133.85
L 146.25 129.45
Q 144.1 126.75 138.35 123.6 133.45 121.2 126.55 119.4
M 79.35 196.85
Q 76.9 194.15 75.1 193.05 73.2 192.05 70.85 191.95 66.5 192.05 61.95 193.7 57.4 195.35 53.25 197.45 49.55 199.5 47 202.2 45.4 204.3 45.8 205.05 45.8 205.55 47.65 207
L 79.3 225.75
Q 91.85 233.75 105.85 241 106.3 241.35 107.05 241.4 108.25 241.4 108.5 240.75 108.9 239.5 106.3 238.3
L 105.45 237.9 50.35 205.45
Q 48.6 204.1 49.05 202.75 49.5 201.4 53.85 198.55 57.8 196.15 66.7 193.5 70.55 192.85 72.55 193.2 73.9 193.45 75.7 195 80.4 199.05 85.15 204.8 89.1 209.75 94.8 215.55 98.45 219.25 102.05 222.2 103.25 222.55 102.85 221.95
L 96.5 215.95
Q 91 210.1 85.1 203
L 80.65 198.05
Q 80.3 197.8 80.55 197.6 82.1 197.2 83.55 197.2 87.9 197 92 198.55 97.15 200.55 99.55 204.45 102.4 209.35 107.55 221.35 108.05 222.55 108.85 223.65 109.65 224.15 109.5 223.35 108.7 221 107.05 217.45 104.1 210.65 100.35 203.45 98.1 200.4 94.8 198.65 92.05 197.25 87.85 196.4 82.9 196.05 79.35 196.85
M 75.95 126.2
Q 75.25 124.65 74.8 124.1
L 71.85 124.7
Q 71.65 124.75 71.85 125.05
L 77.3 135.7
Q 79.4 139.65 80.75 143.55 82.75 149.75 83.5 155.95 84.15 161.75 85.55 165 86.65 168 90.3 172.9 96.75 181.55 102.5 190.4 106.3 196.45 109.55 199.65 113.5 201.8 118.2 199.9 124.45 197.05 130.5 192.8 133.75 190 136.55 186.05 135.25 186.45 134.2 186.5 132.9 186.55 132.55 186.3
L 130.6 188.6
Q 127.55 191.9 123.15 194.1
L 116.65 197.6
Q 113.15 198.8 111 196.75 108.15 193.3 105.95 189.75
L 93 171.4
Q 90.7 168.85 88.7 164.55 87.65 162.1 86.85 158.3 86.4 151.35 83.75 143.55 82.6 139.75 80.7 135.7
L 75.95 126.2
M 64 121.1
Q 63.7 121 63.55 121.15
L 63.3 125.45
Q 63 128.2 62.15 130.65 61.05 132.9 59.55 134.7
L 56.1 138
Q 55.6 138.95 55.9 139.6 56.2 140.4 56.9 140.75 59.5 141.2 60.6 141.25 61.75 141.25 62.65 140.85 64.5 139.7 65.2 138.65 66.55 136.9 67.45 135.15
L 69.75 130.4
Q 70.05 129.75 69.75 129.75 69.35 129.65 69.05 130.25
L 66.9 134.65
Q 66 136.5 64.55 138.25 63.4 139.45 62.05 140.25 61.05 140.45 60.1 140.35 58.65 140.35 57.25 139.85 57 139.65 56.8 139.1 56.8 138.6 57.4 137.95 58.85 136.85 60.15 135.45 61.85 133.5 63.15 131 63.7 129.95 64.25 125.85 64.4 123.6 64.3 121.5 64.25 121.2 64 121.1
M 69 116.45
Q 68.15 117.6 68.4 118.8
L 69.2 122.45
Q 69.6 124.3 70.3 124.25 71.05 124.25 72.25 124 75.35 123.5 77.35 122.6 77.8 122.4 77.65 122.05 77.55 121.7 76.25 121.95 75 122.25 72.5 122.85 72.1 122.9 71.85 122.15
L 70.6 118.3
Q 70.6 117.85 71 117.5 73.5 116.1 76.55 114.3 79.15 112.25 81.75 111.25 84.9 113.3 86.55 115.1 86 115.85 85.15 116.7 84.85 117 84.8 117.4 85.25 117.9 85.7 117.65
L 88.65 114.7
Q 89.15 114.2 88.95 113.9
L 87.75 112.7
Q 86.4 111.15 82.5 108.9 81.1 108.7 80.15 109.5
L 74.8 113.1
Q 69.35 115.85 69 116.45
M 99 74.5
Q 97.25 74.75 95.7 75.15 90.9 76.35 88.7 78.75 86.3 81.4 84.55 85.4 84.2 86.15 83.85 86.95 81.85 91.95 85.25 97.35 86.45 98.9 89.65 101 91.9 102.4 95.05 104.1 100.75 105.4 105.65 105.2 113.55 104.35 116.65 99.55 121.45 93.65 118.7 85.05 117.6 83.05 116.5 81.5 113.95 77.85 111.35 76.95 107.9 74.8 99 74.5
M 95.7 76.2
Q 97.3 75.8 99.2 75.5 107.45 75.8 110.7 77.8 113.35 78.7 116 82.75 116.8 83.95 117.55 85.4 120.1 93.4 115.65 98.9 112.75 103.4 105.4 104.2 100.8 104.4 95.45 103.15 88.2 99.3 86.3 96.85 83.15 91.85 85 87.15 86.9 82.45 89.5 79.5 91.5 77.35 95.7 76.2
M 111.35 85.7
Q 109.6 85.45 108.65 86.05 106.3 87.3 107.05 90.25 107.9 91.9 109.35 92.45 111.4 92.85 112.9 91.85 114.4 90.05 113.85 88.25 113.35 86.35 111.35 85.7
M 67.2 94.8
Q 67.15 94.75 67.15 94.7
L 67.15 94.5
Q 67.15 94.4 67.2 94.25 66.95 94.25 66.75 94.2 66.75 94.35 66.65 94.45 66.55 94.55 66.45 94.6 65.15 97 63.5 99.45 62 101.65 59.35 104.1 56.65 106.5 53.4 108.95 50.75 111.05 47.35 112.7
L 45.9 113.35
Q 37.15 114.95 36.3 115.4 27.15 119 23.8 121.75 21.9 123 20.3 124.35 18.05 126.6 17.45 128.6
L 16.4 133.75
Q 16.3 136.7 18.6 138.4 19.8 139.7 21.45 139.65 23.05 139.6 25.7 137.6 27.15 135.45 27.65 131.95 28 129.5 29.5 127.25 30.9 125.15 33.4 123.7 34.2 123.2 37.15 122.5 40.4 122 43.3 122.1 46.35 122.7 50.55 122.5 48.5 124.7 46.55 126.8 42.55 130.6 38.2 133.85 34.45 136.95 31.95 139.65 29.2 143.4 29.45 145.55 29.7 147.65 31.05 148.75 32.2 149.85 33.65 150.45 36.2 150.7 39.15 148.8 42.3 146.1 44.35 143.2 47.35 139.55 50.2 136
L 58.45 125.9
Q 60.1 124.25 62.45 122.85 63 122.55 63.1 121.6 61.1 122.25 59.4 123.65 56.75 125.95 54.55 128.9
L 40.85 145.65
Q 39.35 147.25 37.3 148.65 34.85 149.75 33.25 148.9 31.6 148.05 30.9 146.8 30.15 145.45 31.05 143.55 31.9 141.65 33.7 139.2 38.4 135.3 43.1 131.45 47.2 127.85 50.9 123.45 51.7 122.5 52.3 121.95
L 57 120.95 64.05 117.6 68.2 114.75 71.05 112.25 71.15 111.55 69.55 112.25 65.3 115.65 59.05 119.15 53.95 120.65 48.65 121.55
Q 45.8 121.5 42.7 121 39.55 121.1 37.05 121.55 34.4 121.8 32.5 122.9 29.8 124.65 28.45 126.75 27.1 128.85 26.7 131.65 26.3 134.5 25.15 136.65 23.65 138.15 21.7 138.55 20.6 138.85 19.25 137.8 17.1 136.3 17.35 133.7
L 18.35 129
Q 18.8 127.25 21.05 125.3 22.25 124.2 24.1 122.9 26.05 121.6 28.1 120.4 30.85 118.85 36.3 116.6 39.05 115.7 45.95 114.45
L 47.8 113.6
Q 50.35 112.5 53.75 110
L 58.75 106.05
Q 61.2 104.05 62.7 102.05 65 99.05 66.5 96.25 66.85 95.5 67.2 94.8
M 62.4 85.9
Q 62.4 86 62.4 86.15 62.45 86.15 62.5 86.1 62.45 86 62.4 85.9
M 88.1 66.85
Q 85.95 65.95 81.15 65.8 76.35 65.6 71.8 68.25 67.35 71.25 64.8 75.1 64.45 75.75 64.15 76.35 64.4 76.5 64.55 76.7 64.8 77 64.85 77.4 65.25 76.6 65.75 75.8 68.4 71.7 72.05 69.5
L 74.8 67.9
Q 74.25 68.65 74.7 69.45 75.35 70.4 76.95 70.4 78.5 70.6 79.65 70.2 80.7 69.75 80.85 68.9 81.05 68 80.45 67.35 80.2 67 78.9 66.85
L 80.1 66.75
Q 84.15 66.65 87.45 67.5 90.3 68.6 92.2 70.3
L 93.25 69.8
Q 91.3 68.05 88.1 66.85
M 114.85 67.1
Q 109.2 66.75 104.25 67.35 100.75 67.7 97.7 68.65 95.3 69.45 91.55 71.5 90.1 71.8 88.75 71.85 87.35 71.95 86 71.75 85.8 71.65 85.65 71.6 84.1 71.25 82.4 72.2
L 80.3 73.85 74.1 78.65
Q 73.25 79.4 71.6 82.95 70.65 85.65 69.3 88.3
L 68.6 89.9
Q 69 90.9 69 91.1 69 91.15 69 91.2 69.15 90.9 69.3 90.6 69.4 90.4 69.45 90.25 71 87.05 72.75 82.95 73.7 80.85 74.75 79.7
L 81.8 74
Q 83 73.1 84.4 73 86 73.4 88.1 73.45 89.2 73.5 90.5 73.45 91.9 73.35 92.45 73.1
L 94.85 71.95
Q 100.3 69 109.9 68.85 113.15 68.65 119.55 69.15 124.45 69.5 128.9 70.25 130.3 70.7 130.4 70.95 130.75 71.95 131.55 72.6 132.1 73.15 133.65 72.7
L 135.75 72.3
Q 136.65 71.8 137.1 72.1 146.45 75.15 152.9 78.9 153.1 79 153.2 78.85 153.75 78.35 155.6 76.9 155.7 76.75 156.3 76.75
L 141.8 70.9
Q 140.15 70.3 137.95 69.8 135.8 69.25 133 70.55
L 132.75 69.95
Q 132.4 69.25 130.6 68.75 123 67.35 114.85 67.1
M 81.35 47.45
Q 82.15 47.9 82.1 46.35 86.45 47 90.4 46.55 94.4 46.15 91.8 45.65 86.15 45.85 80.25 44.9 78.3 43.75 77.65 42.65 77 41.6 75.75 40.6 74.55 39.55 74.25 39.55 73.95 39.5 73.7 39.8 73.4 40.1 73.4 40.7 73.35 41.3 73.35 41.45 73.35 41.6 73.4 43.05 73.45 44.55 73.85 49.15
L 74.1 49.6
Q 80.85 54.7 87.45 61.95 95.65 62.55 101.45 64.65 103.1 65.05 102.5 64.15 95.65 61.35 87.9 61.05 86.25 59.05 83.5 56.35 80.8 53.7 76.3 48.5 74.65 45.6 75.5 43.35 75.5 43 76.8 43.9 78.1 44.8 78.7 45.35 79.3 45.9 79.6 46 79.9 46.05 80.45 46.55
L 81.35 47.45
M 124.55 28.75
Q 124.5 28.65 124.4 28.45 122.75 27.05 121.45 25.85 118.85 23.45 118.85 22.85 118.85 22.2 119 21.8 116.3 18.75 113.35 15.95 112 15.3 107.9 14.6 106.35 14.35 103.85 14 101.15 13.6 100.5 13.5
L 93.35 13.5
Q 91.25 13.4 90.05 15.05 89.6 15.65 89.35 16.45 89.15 17.05 89.15 17.55 89.15 17.8 89.45 19.5 89.75 21.2 89.75 21.45 89.75 22.5 90.15 23.4 90.6 24.4 91.55 25.4 92.2 26.05 92.85 27.35 93.5 28.75 94 29.3 95.2 30.7 95.55 31.3 96 32.15 96 33.15 96 34.25 95.8 34.9 95.55 35.5 95.4 36.5
L 94.45 53.65
Q 94.7 54.45 95.3 53.9 95.65 52.6 95.85 50.45 96.2 45.85 96.95 41.45
L 97.6 33.3
Q 97.8 31.75 96.55 30.45
L 92.95 26.75
Q 91.5 24.8 90.9 23 90.6 21.95 90.4 19.35 90.45 17.35 91.45 16.75 92.15 16.3 94.85 16.1 95.55 15.95 103.1 16.3 106.15 16.35 112 17.6 113.65 18.65 116.5 21.6 119.35 24.6 122.45 29 125.3 32.65 126.9 35.7 127.2 36.4 127.2 36.9
L 127.2 37.6
Q 126.95 39.95 126.45 42.75
L 124.45 55
Q 123.55 59.45 122.8 63.9 123.3 64.55 123.85 63.75
L 126.7 51.25
Q 128.1 44.1 129.15 36.85 129.2 36 128.85 35 128.8 35 128.75 35 128.3 35 126.8 32.55 125.1 29.6 124.55 28.75
M 206.1 169.25
Q 205.05 170.1 205.05 171.1
L 203.35 179.15
Q 199.55 195.1 194.9 200.65 192.8 203.05 190.6 204.35 189.6 204.95 188.2 203.9
L 173.75 193.1
Q 168.1 188.7 160 184.25 156.8 181.15 156.25 177.95 155.65 177.2 155.3 178.05 155.05 179.9 156.2 181.7 157.15 183.2 159.3 185.2 164.55 188.05 168.45 191.05 176.2 196.3 185.45 204.15 187.3 205.6 188.1 205.9 189.35 206.7 191.55 206.35 193.45 206.05 197.05 203.4 199.85 201.1 202.75 194.8 205.2 187.35 207.05 178.9 208.05 175.6 208.45 171.25 208.6 169.25 207.9 168.95 207 168.55 206.1 169.25
M 205.8 134.55
Q 205.05 130.25 203.8 126.55
L 201.25 118.55
Q 200.6 116.55 199.85 115.05 199.2 114.4 198.3 114.4 196.9 114.4 195.95 114.6 188.65 115.9 181.75 117.45
L 160.7 122.25
Q 159.75 122.6 159.7 122.95 159.5 123.55 162.35 122.95
L 188.25 117.15 195.95 115.85
Q 197.2 115.65 197.45 116.3
L 201.55 128.95
Q 205.35 142.5 205.25 161.6 205.2 164.45 204.05 165.45 202.6 166.65 200.3 166.45
L 168.55 159.3
Q 165 158.5 164.4 158.8 163.55 159.25 165.85 159.85
L 200.25 167.95
Q 202.25 168.4 204 167.65 205.7 167.05 206.7 165.9 207.75 164.7 208 160.5 208 153.2 207.3 145.65 206.8 139.7 205.8 134.55
M 165.45 84.45
Q 169.65 87.5 172.95 90.2 176.95 93.1 180.05 96.2 183.25 99.05 186.95 103.2 190.05 106.5 191.9 109.2 193.5 111.55 194.5 113.8 194.95 114 196 113.75 197.05 113.45 196.9 113.05
L 196.45 111.85
Q 195.05 109.25 193.15 106.9
L 187.6 100.35 181.35 93.8
Q 178.6 90.8 175.05 88 171.35 85.05 167.1 82.15
L 159.45 77.9
Q 158.3 77.55 157.65 77.65 157.05 77.75 156.7 77.9 155.55 78.5 155.05 79.05
L 140.45 96.05
Q 140.25 96.35 140.7 96.3
L 155.7 79.95
Q 156.35 79.35 157.65 79.9 161.35 81.9 165.45 84.45 Z"/>

<path fill="#EBC384" stroke="none" d="
M 94.8 77.2
Q 95.35 76.9 95.55 76.6 95.65 76.45 95.7 76.2 91.5 77.35 89.5 79.5 86.9 82.45 85 87.15 83.15 91.85 86.3 96.85 88.2 99.3 95.45 103.15 100.8 104.4 105.4 104.2 112.75 103.4 115.65 98.9 120.1 93.4 117.55 85.4 116.8 83.95 116 82.75 116 82.9 116 83.05 116 83.15 116.95 87 117.9 90.8 117.9 91.1 117.9 92 116.65 93.6 115.35 95.3 113.4 96.85 111.2 98.65 108.8 99.65 106.05 100.9 103.55 100.9 102.05 100.9 99.7 100.25 96.9 99.45 94.5 98.15 91.55 96.55 89.9 94.4 87.95 91.85 87.95 88.7 87.95 86.95 88.2 85.45 88.5 83.7 89.15 82.2 89.5 81.1 89.75 80.6 90.2 79.8 91.4 79.05 92.4 78.45 93.45 77.9 94.8 77.25 94.8 77.2
M 80.3 73.85
Q 79.65 74.05 79.05 74.15 77.15 74.4 75.4 76 75.2 76.25 74.95 76.5 74.15 76.9 73.3 77.55 71.1 79.1 69.65 81.15 68.9 81.9 68.5 82.65 68.2 83.25 67.4 84.25 66.7 83.95 65.9 83.75 65.5 83 65.2 82.45 64.8 81.7 64.8 80.3 64.9 78.75 64.8 78.15 64.9 77.75 64.85 77.4 64.8 77 64.55 76.7 64.4 76.5 64.15 76.35 64.1 76.3 64.05 76.25 64.05 76.4 63.95 76.6 63.9 76.75 63.85 76.85 63.85 76.9 63.9 77 63.95 77.1 63.95 77.15 63.95 77.4 63.65 77.8 63.35 78.2 63.3 78.45 63.25 79.1 62.95 79.7 62.7 80.1 62.45 81.15 62.3 82 62.3 82.15
L 62.35 82.55
Q 62.45 83 62.45 83.1 62.45 83.2 62.35 84.6 62.35 85.25 62.4 85.9 62.45 86 62.5 86.1 62.45 86.15 62.4 86.15 62.45 86.6 62.55 87.05 62.55 87.1 62.75 87.3 62.95 87.55 63 87.65 63 87.75 63.05 87.95 63.05 88.15 63.1 88.25 63.15 88.45 63.3 88.85 63.45 89.2 63.45 89.4 63.4 89.9 63.85 90.6 64.05 90.95 64.65 91.8 64.8 91.95 65.8 93.05 66.75 94.1 66.75 94.15
L 66.75 94.2
Q 66.95 94.25 67.2 94.25 67.3 93.95 67.6 93.55 68.25 92.7 68.25 92.65 68.5 92.25 68.5 92.2 68.65 91.95 68.65 91.75 68.65 91.35 68.9 91.2 68.95 91.2 69 91.2 69 91.15 69 91.1 69 90.9 68.6 89.9
L 69.3 88.3
Q 70.65 85.65 71.6 82.95 73.25 79.4 74.1 78.65
L 80.3 73.85 Z"/>
</g>

<g id="Layer3_0_FILL">
<path fill="#B23366" stroke="none" d="
M 168.65 203.85
Q 168.9 203.55 168.9 203.1 168.9 201.8 168.25 200.4 167.65 199.15 166.8 198.25 165.95 197.4 165.35 197.5 164.7 197.55 164.7 198.8 164.7 199.15 164.9 199.5 165.05 199.7 165.45 200.1 166.15 200.95 166.2 201.55 166.2 201.7 166.2 202.2 166.2 202.75 166.25 203.1 166.55 204.3 167.75 204.3 168.3 204.3 168.65 203.85
M 104.55 227.05
Q 104.55 227 104.55 226.95 104.1 226.65 103.75 226.4 104.15 226.75 104.55 227.05
M 98.9 221.85
Q 98.95 221.8 98.95 221.75 99.05 221.7 99.1 221.6 98.95 221.45 98.8 221.25
L 98.8 221.3
Q 98.8 221.5 98.75 221.65 98.85 221.75 98.9 221.85
M 83.9 214.8
Q 82.4 213.1 81.35 213.65 80.9 212.7 80.35 212.3 79.9 211.95 79.45 212.05 79 212.1 78.75 212.5 78.45 212.9 78.45 213.45 78.45 213.7 78.7 214.15 78.95 214.65 79.35 215.1
L 79.4 215.15
Q 79.4 215.2 79.4 215.3 79.4 215.4 79.7 215.8 80.1 216.25 80.6 216.7 81.95 217.85 83.1 217.85 83.25 217.85 83.4 217.85 83.8 218.1 84.15 218.1 84.75 218.1 85.05 217.65 85.3 217.3 85.3 216.95 85.3 216.75 84.9 216.15 84.45 215.45 83.9 214.8
M 161.2 223.3
Q 160.75 223.6 160.75 224.3 160.75 224.7 161 225.1 161.45 225.75 162.4 225.75 163 225.75 163.3 225.3 163.55 224.95 163.55 224.6 163.55 224.1 163.1 223.7 162.7 223.3 162.15 223.15 161.55 223.05 161.2 223.3
M 140.45 233
Q 139.85 233.4 139.85 234.35 139.85 234.9 140.05 235.3 140.5 236.1 141.6 236.1 142.6 236.1 143.2 235.55 143.7 235.1 143.7 234.6 143.7 233.95 143.1 233.45 142.55 232.95 141.8 232.8 141 232.65 140.45 233
M 139.4 165.4
Q 138.45 165.3 137.85 165.8 137.15 166.4 137.15 167.55 137.15 168.15 137.5 168.75 138.05 169.8 139.4 169.8 140.55 169.8 141.15 168.9 141.6 168.25 141.6 167.55 141.6 166.65 140.9 166.05 140.3 165.45 139.4 165.4
M 143.5 158.6
Q 145.4 158.6 145.8 156.75 145.95 156.1 145.9 155.3 145.85 154.55 145.85 154.4 145.85 152.5 144.95 151.4 144.15 150.5 142.95 150.35 141.85 150.25 140.95 150.85 140.05 151.5 140.05 152.55 140.05 152.75 140.35 153.65 140.75 154.75 141.2 155.75 142.5 158.6 143.5 158.6
M 141.5 173.95
Q 140.25 173.8 139.45 174.7 138.5 175.75 138.5 177.95 138.5 178.65 138.85 179.2 139.3 179.95 140.3 180.2 142.3 179.25 144.3 178.25 144.3 178.15 144.35 178.05 144.5 177.65 144.5 177.35 144.5 176.1 143.55 175.05 142.7 174.1 141.5 173.95
M 147.55 138.9
Q 146.1 138.7 145.1 138.95 143.4 139.35 143.4 141 143.4 141.7 144.25 142.7 144.65 143.2 146.1 144.6 147.45 145.9 148.05 146.65 148.9 147.85 149 148.85 149.05 150.2 149.95 153.65 150.75 157 150.75 157.05 150.75 159.85 149.9 161.85 149.35 163.1 148 164.75 146.5 166.5 146.05 167.4 145.2 169.1 145.2 171.35 145.2 171.45 145.15 172.2 145.2 173.1 145.35 173.8 145.6 174.85 146.15 175.4 146.1 175.7 146.1 176.05 146.1 176.55 146.4 177.15 148.4 176.1 150.35 175 151.75 174.25 152.9 171.95 156.3 164.8 158.7 156.7 159.75 154.45 159 151.85
L 156.15 144.2
Q 155.5 142.85 153.2 141.75 150.3 140.2 147.55 138.9
M 135.95 128.05
Q 135.3 127.7 134.25 126.95 133.3 126.3 132.8 126 131.95 125.6 131.1 125.4
L 124.25 125.4 123.6 127.15
Q 123.2 128.1 123.6 128.2
L 125.15 128.35
Q 135.45 130.5 145.6 135.5 145.8 135.6 146.05 135.7 146.1 135.45 146.1 135.2 146.1 134.7 145.65 134.05 145.4 133.75 145.3 133.5
L 145.25 133.85
Q 144.35 134.1 144.4 133
L 144.85 131
Q 144.7 130.6 144.5 130.3 143.85 129.5 142.95 129.55 142.15 129.65 141.55 130.35 141.25 130.2 140.85 130.1 138.3 129.15 138.2 129.15 137 128.7 135.95 128.05
M 46.75 132.35
Q 46.1 131.8 45.2 131.75 44.3 131.65 43.7 132.25 43 132.85 43 134 43 134.65 43.3 135.25 43.9 136.35 45.2 136.35 46.35 136.35 47 135.4 47.45 134.7 47.45 134.05 47.45 133.05 46.75 132.35
M 49.7 115.2
Q 49 115.75 49 116.9 49 117.5 49.35 118.1 49.9 119.15 51.25 119.15 52.4 119.15 53 118.25 53.45 117.6 53.45 116.9 53.45 116 52.75 115.4 52.15 114.8 51.25 114.75 50.3 114.65 49.7 115.2
M 64.55 127.5
Q 64.35 127.3 64.05 127.15 63.6 130.15 63.15 131 63 131.2 62.9 131.4
L 62.95 131.4
Q 64.25 131.4 64.85 130.55 65.3 129.9 65.3 129.2 65.3 128.1 64.55 127.5
M 57.4 137.95
Q 56.8 138.6 56.8 139.1 57 139.65 57.25 139.85 58.45 140.25 59.7 140.35 59.7 140.2 59.7 140.1 59.7 139.2 59 138.55 58.4 138 57.5 137.95 57.45 137.95 57.4 137.95
M 60.5 135
L 60.35 135.2
Q 59.95 135.75 59.95 136.5 59.95 137.1 60.3 137.75 60.85 138.8 62.2 138.8 63.35 138.8 63.95 137.9 64.4 137.25 64.4 136.55 64.4 135.5 63.7 134.85 63.1 134.3 62.2 134.3 61.25 134.3 60.65 134.85 60.65 134.9 60.6 134.9 60.6 134.95 60.55 134.95
L 60.5 135
M 76.35 85.6
Q 76.35 84.75 76 84.35 75.65 84 75.1 84.1 73.8 84.35 72.45 86.45 72.1 86.95 71.35 88.8 70.6 90.55 70.6 90.8 70.6 91.2 70.7 91.4 70.95 91.9 71.8 91.9 72.45 91.9 73.4 91.3 74.15 90.8 74.5 90.45 74.75 90.15 75.5 89.6 76.1 89.2 76.15 88.9 76.3 88.2 76.3 87.25 76.35 86.6 76.35 85.6
M 161.3 94.45
Q 160.7 93.85 159.95 93.55 159.1 93.2 158.6 93.5 158 93.85 158 95.05 158 95.95 158.35 96.3 158.9 96.8 160.6 96.8 161.35 96.8 161.7 96.3 161.9 96 161.9 95.5 161.9 95.05 161.3 94.45
M 146.3 98.35
Q 146.25 98.5 146.2 98.55 145.6 99 145.5 99.15 145.2 99.45 145.2 99.65 145.2 100.1 145.5 100.45 146.05 101.1 147.45 101.1 148.75 101.1 149.35 100.35 149.75 99.85 149.75 99.15 149.75 98.8 149.6 98.4 149.45 97.9 149.2 97.55 148.4 96.65 147.05 97.35 146.6 97.6 146.4 98.05 146.4 98.15 146.3 98.35
M 140.45 84
Q 140.8 84.35 141.25 84.75 142.55 85.75 143.45 85.75 144.1 85.75 144.4 85.3 144.6 84.95 144.6 84.6 144.6 84.25 143.9 83.65 143.2 83.1 142.35 82.75 141.4 82.35 140.8 82.5 140.1 82.65 140.1 83.55 140.1 83.65 140.45 84
M 138 80.35
Q 137.65 80.05 137.2 80 136.7 79.95 136.4 80.2 136.05 80.5 136.05 81.15 136.05 81.45 136.2 81.75 136.5 82.3 137.2 82.3 137.8 82.3 138.1 81.85 138.35 81.5 138.35 81.15 138.35 80.65 138 80.35
M 82.7 91.95
Q 82.7 92 82.7 92.55
L 82.7 92.6
Q 82.6 92.7 82.55 92.85 82.25 93.35 82.25 93.85 82.25 95.2 83.8 97.55 85.35 99.9 87.7 102.15 90.35 104.6 93.05 105.95 96.25 107.5 99 107.3
L 105.7 107.3
Q 106.6 107.3 107.9 106.7 113.9 105.95 116.85 101.8 118.1 100 118.65 97.75 119 96.4 119.05 95.15 118.3 97.5 116.65 99.55 113.55 104.35 105.65 105.2 100.75 105.4 95.05 104.1 87.3 99.95 85.25 97.35 82.55 93.1 83.25 89.05 82.7 90.55 82.7 91.95
M 115.9 52.5
Q 115.3 51.95 114.4 51.95 113.5 51.95 112.85 52.5 112.15 53.15 112.15 54.2 112.15 54.8 112.5 55.4 113.1 56.45 114.4 56.45 115.55 56.45 116.2 55.55 116.6 54.95 116.6 54.2 116.6 53.15 115.9 52.5
M 119.95 51.75
Q 119.95 52.3 120.3 52.95 120.9 54 122.2 54 123.35 54 124 53.1 124.45 52.45 124.45 51.75 124.45 50.7 123.75 50.05 123.1 49.5 122.2 49.5 121.3 49.5 120.65 50.05 119.95 50.7 119.95 51.75
M 105.35 27.5
Q 104.55 28.1 104.55 29.2 104.55 29.9 105 30.55 105.75 31.65 107.45 31.65 108.5 31.65 109.15 30.9 109.7 30.2 109.7 29.45 109.7 28.4 108.9 27.7 108.15 27.1 107.15 27 106.1 26.95 105.35 27.5
M 127.2 36.9
Q 127.2 36.4 126.9 35.7 125.3 32.65 122.45 29 119.35 24.6 116.5 21.6 113.65 18.65 112 17.6 106.15 16.35 103.1 16.3 98.65 16.1 96.55 16.05 96.55 16.35 96.55 16.7 96.55 17.6 97.05 18.15 97.55 18.7 98.7 19.15 99.2 19.4 101.4 20.15 103.5 20.95 105.1 21.6 105.4 21.75 106.65 21.9 107.95 22.1 108.75 22.4 111.45 23.35 111.95 26.5 112.25 28.7 112.9 30.4 113.3 31.35 114.1 32.9 114.8 34.25 115.1 35.15 115.5 36.45 115.5 38.2 115.5 38.85 114.85 42.85 114.5 44.85 114.15 46.75 114.15 47.55 114.4 48.1 114.9 49.3 116.4 49.3 117.9 49.3 118.95 47.25 119 47.15 119.05 47.05 123.5 47.05 125.9 46.2
L 126.45 42.75
Q 126.95 39.95 127.2 37.6
L 127.2 36.9
M 186 195.35
Q 186.1 195.8 186.3 196.2 187 197.45 188.6 197.45 189.8 197.45 190.45 196.55 190.95 195.95 190.95 195.3 190.95 194.75 190.15 194.15 189.4 193.6 188.45 193.4 187.4 193.15 186.75 193.45 185.95 193.8 185.95 194.9 185.95 195.05 186 195.35
M 183.05 132
Q 182.7 132.4 182.7 133.1 182.7 133.55 182.9 134 183.15 134.45 183.65 135 183.9 135.3 185.1 135.95 186.25 136.5 186.35 136.8 186.4 136.95 186.55 137.7 186.75 138.5 186.9 138.95 187.45 140.55 188.45 140.55 189.4 140.55 189.6 139.7 189.7 139.4 189.7 139.1
L 189.65 138.8
Q 189.75 138.05 190.05 137.6 190.35 137.2 190.35 136.65 190.35 136.25 188.85 134.05 187.45 132.1 187.15 131.8 187.05 131.8 186.8 131.45 186.5 131.05 186.3 130.9 185.5 130.15 184.6 130.75 183.4 131.55 183.05 132
M 171.75 99.5
Q 171.45 99.2 170.95 99.2 170.5 99.2 170.15 99.5 169.8 99.85 169.8 100.4 169.8 100.7 170 101 170.3 101.55 171 101.55 171.6 101.55 171.9 101.1 172.15 100.75 172.15 100.4 172.15 99.85 171.75 99.5
M 88.45 225.6
Q 87 224.6 85.15 223.75 83.85 223.15 81.75 222.35 78.9 221.3 78.4 221.1 76.55 220.35 75.3 219.6 72.6 218.05 68.95 215.65 65.2 213.2 63.95 212.35 61.3 210.9 61.05 210.75 59.1 209.75 57.75 209.3 56.85 209 56.15 208.95
L 105.45 237.9 106.3 238.3
Q 108.1 239.1 108.45 239.95 108.95 240 109.35 240.05 109.4 238.6 109.35 236.5 109.3 234.35 109.65 229.5 110 228.6 110.8 228.05 110.65 227.85 110.5 227.7 109.85 227.95 108.9 228.25 108.45 228.4 107.8 228.75 107.4 228.95 106.6 229.35 106.35 229.5 106.1 229.6 105.4 230.35 105.35 231.2 105.3 231.8 105.4 231.9
L 103.4 232.15
Q 102.95 231.65 102.6 231.4 101.95 230.9 101 230.9 99.35 230.9 94.1 228.5 92.25 227.65 90.45 226.7 88.85 225.9 88.45 225.6
M 94 214.7
Q 94.3 215.2 94.5 215.45
L 94.55 215.5
Q 94.65 215.5 94.8 215.5 94.35 215.1 94 214.7
M 83.45 202.8
Q 83.4 202.9 83.4 203.1 83.5 203.05 83.65 203.05 83.55 202.9 83.45 202.8
M 104 221.05
Q 103.4 220 103.1 219.25 97.65 213.7 96.2 212.05 94.15 209.7 92.85 208.25 91.45 206.7 89.85 205 88.95 203.95 87.85 203.1 86.7 202.2 85.75 201.8 84.65 201.35 84.05 201.7
L 84 201.75 85.1 203
Q 91 210.1 96.5 215.95
L 102.85 221.95
Q 103 222.15 102.9 222.25 103.5 222.6 104 223.15 104.1 223.3 104.2 223.4 105.25 224 105.35 224.05
L 105.35 223.5
Q 105.3 223.25 104.85 222.5 104.3 221.6 104 221.05
M 141.1 243.85
Q 137.1 245.1 133 246.1 137 245.6 141.1 243.85
M 122.2 237.9
Q 122.35 237.5 122.45 237.2 121.5 239.35 120.75 241.55 120.95 241.15 121.15 240.7 121.75 239.35 122.2 237.9
M 122 234.65
Q 122.05 234.55 123.8 231.5 122.35 233.75 121.85 233.25 121.35 232.8 120.25 233.1 119.15 233.4 118.2 234.7 117.85 235.15 117.65 235.75 117.65 235.85 117.35 236.9 117 238.4 115.55 238.8 115.65 239.05 115.25 238.8 115.1 238.75 114.45 238.3 113.85 237.8 113.4 237.75 113 237.7 111.55 238.2 111.5 238.3 111.4 238.45 111.2 238.7 110.85 238.7 110.8 238.7 110.75 238.7 110.8 239.2 110.85 239.7 111.25 240.5 112.25 240.65
L 116.25 241.6
Q 117.9 242.15 117.65 242.85
L 117.2 244
Q 116.85 244.55 114.7 243.9 114.25 243.75 113.75 243.55 115.8 244.55 118.2 244.55 118.35 244.55 118.55 244.45 118.5 243.9 118.75 243.25
L 122 234.65
M 149.35 220.75
Q 149 221.35 149 221.95 149 222.75 150.25 225.15 150.95 226.4 151.15 226.8 151.5 227.65 151.5 228.05 151.5 229.35 149.65 231.65 147.65 234.05 144.6 236.25 141.05 238.75 137.2 240.15 132.75 241.75 128.45 241.6
L 121.95 241.65
Q 121.05 241.8 120.5 242.3 120.35 242.65 120.25 243 119.8 244.15 120.7 244.5 121.35 244.8 122.85 244.9 127.65 244.7 131.75 243.5
L 146.15 239.35 156.15 234.75
Q 157.2 234.5 157.7 235.3 157.95 235.05 158.2 234.85 158.75 234.4 159.15 234.2 159.1 234.05 159 233.8 158.75 233.5 158.6 233.1 157.8 231.4 156.3 228.45 154.75 225.5 152.8 221.05
L 152.4 220.15
Q 151.75 217.5 151.35 217.7 151.25 217.75 151.2 217.85 150.8 218.7 150.25 219.45 149.7 220.2 149.35 220.75
M 169.5 195.45
Q 169.5 196.55 170.45 197.9 171 198.75 172.5 200.3 174.05 201.9 174.55 202.65 175.5 203.95 175.5 204.95 175.5 206.15 175.5 207.45 175.5 208.3 175.35 208.85 175.15 209.75 173.4 214.05 172.15 217.45 168.8 220.65 168.6 220.8 168.5 220.9 166.8 222.65 166.6 223.8 166.35 225 166.35 225.1 166.35 226.5 165.1 227.35 164.25 227.85 162.25 228.5 160.1 229.2 159.4 229.6 158.95 229.85 158.65 230.2 158.9 230.6 159.1 230.95 159.45 231.75 160.4 232.25 161.45 232.8 162.65 232.15
L 168.8 228.3
Q 171.35 226.65 174.05 224.45 176.7 222.25 179.3 218.95 182.55 215.45 185.05 211.7 186.05 210 187.45 208.75 188.15 208.8 188.55 209.1
L 188.65 208.9
Q 189.15 207.8 189.2 207.2 189.15 207.1 189.2 207
L 189.65 206.4
Q 189.75 206.3 189.85 206.2
L 189.5 206.4 189.45 206.4
Q 188.8 206.3 188.3 206.05
L 188.25 206
Q 188.2 205.95 188.1 205.95
L 188.1 205.9
Q 188.05 205.9 188 205.85 187.2 205.5 185.45 204.15 177.45 197.4 170.6 192.55 169.5 193.1 169.5 195.45
M 169.05 162.85
Q 169.05 163.95 170.3 164.8 171.4 165.5 173.7 166.2 174.95 166.55 178.45 167.4 181.9 168.25 183.9 168.85 190.6 170.85 194.1 173.9 198.75 177.9 198.75 184.4 198.75 186.7 197.95 188.3 197.45 189.35 196.3 190.5 195.95 190.8 195.4 191.35 194.9 191.85 194.6 192.3 193.8 193.45 193.8 195 193.8 195.3 194.1 195.85 194.4 196.4 194.4 196.7 194.4 197.1 194 197.55 194 197.6 193.2 198.5 192.05 199.8 192.05 201.1 192.05 201.15 192.05 201.6 192.05 202.1 192.2 202.55 192.3 202.85 192.45 203.05 193.7 202.05 194.9 200.65 199.55 195.1 203.35 179.15
L 205.05 171.1
Q 205.05 170.1 206.1 169.25 206.75 168.75 207.4 168.8 207.35 168.7 207.3 168.6 207 167.95 206.15 166.45 206.05 166.5 206 166.55
L 205.95 166.15
Q 205.85 166.5 205.4 166.2 205.45 166.4 205.4 166.6 205.4 166.75 205.25 166.5 204.95 166.1 205.2 167.1 204.65 167.45 204 167.65 202.25 168.4 200.25 167.95
L 169.55 160.4
Q 169.05 161.4 169.05 162.85
M 197.45 116.3
Q 197.2 115.65 195.95 115.85
L 188.25 117.15 162.35 122.95
Q 162.15 123 161.95 123 161.95 123.05 162 123.1 162.4 124.45 162.8 125.2 163.25 125.95 163.85 126.5 165.6 128.05 168.35 128.05 170.1 128.05 172.15 127.45 172.45 127.35 173.7 126.95 174.55 126.65 175 126.55
L 184.9 126.9
Q 185.3 127 186.6 127.05 188.1 127.3 188.85 128.6 189.3 129.35 190.15 130.85 191.75 133.6 193.25 135.4 195.4 137.9 196.9 140.1 198.6 142.65 199.35 144.6 199.95 146.1 200.7 149.1 201.8 153.3 201.9 153.75 202.1 154.35 202 156.1 201.85 158.45 201.9 159.1 201.9 160.85 202.45 161.75 203.05 162.85 204.55 162.85 204.85 162.85 205.2 162.7 205.25 162.2 205.25 161.6 205.35 142.5 201.55 128.95
L 197.45 116.3
M 201.6 119.6
Q 201.55 119 201.35 118.4 201.1 117.45 200.6 116.75 200.95 117.6 201.25 118.55
L 201.6 119.6
M 35.15 144.9
Q 34 143.5 32.7 142.7 32.15 142.35 31.7 142.2 31.3 142.9 31.05 143.55 30.15 145.45 30.9 146.8 31.6 148.05 33.25 148.9 34.05 149.3 35.05 149.25 35.15 149.1 35.3 148.95 35.75 148.35 36.05 147.7 36.3 147.05 36.3 146.7 36.3 146.2 35.15 144.9
M 38.4 139.35
Q 38.95 138.65 39.3 137.9 39.65 137.25 39.65 137 39.65 135.5 38.7 135.05 36.2 137.1 33.7 139.2 33.55 139.35 33.45 139.5 33.55 139.85 33.7 140.2 34.3 141.2 35.6 141.2 37 141.2 38.4 139.35
M 23.8 133.05
Q 23.1 133.7 23.1 134.75 23.1 135.35 23.45 135.95 23.9 136.8 24.85 136.95 25 136.8 25.15 136.65 26.05 134.95 26.5 132.8 26 132.5 25.35 132.5 24.45 132.5 23.8 133.05
M 22.45 127.85
Q 22.9 127.2 22.9 126.5 22.9 125.6 22.2 125 22 124.8 21.75 124.65 21.35 125 21.05 125.3 19.55 126.6 18.85 127.8 19.45 128.75 20.65 128.75 21.85 128.75 22.45 127.85
M 18.6 131.15
Q 18.25 131 17.95 130.95
L 17.35 133.7
Q 17.1 136.3 19.25 137.8 20.55 138.8 21.55 138.6 21.55 138.55 21.55 138.5 21.55 137.55 21.55 137.15 21.55 136.45 21.5 135.9 21.3 134.55 20.45 133.05 19.5 131.6 18.6 131.15
M 28.1 121.3
Q 27.35 121.95 27.35 122.95 27.35 123.5 27.7 124.1 28.1 124.9 28.9 125.1
L 28.95 125.15
Q 28.35 124.95 27.7 125.05 26.65 125.15 25.9 126 25.1 126.95 25.1 128.5 25.1 129.1 25.45 129.7 25.95 130.55 26.85 130.7 27.35 128.45 28.45 126.75 29.8 124.7 32.35 123 32.2 122.9 32.05 122.85 32.05 122.8 32.05 122.7 32.05 121.55 31.3 121 30.65 120.5 29.7 120.6 28.75 120.7 28.1 121.3
M 43.9 141.9
Q 43.2 141.4 42.3 141.5 41.3 141.65 40.6 142.45 39.85 143.35 39.85 144.8 39.85 145.35 40.2 145.95 40.25 146.1 40.35 146.2 40.6 145.95 40.85 145.65
L 43.9 141.9
M 47.5 137.4
Q 47.05 137.2 46.55 137.2 45.65 137.2 45 137.75 44.3 138.4 44.3 139.45 44.3 140.05 44.65 140.65 44.7 140.7 44.75 140.8
L 47.5 137.4
M 52.95 129.1
Q 52.3 128.35 51.35 128.3 50.4 128.25 49.75 128.95 49 129.65 49 130.9 49 131.75 49.35 132.4 49.75 133.3 50.65 133.55
L 53.5 130.15
Q 53.35 129.55 52.95 129.1
M 46.2 114.35
L 45.95 114.45
Q 39.05 115.7 36.3 116.6 34.7 117.25 33.3 117.85 33.15 118.3 33.15 118.8 33.15 119.65 33.5 120.3 34.15 121.45 35.6 121.6
L 36.55 121.6
Q 36.8 121.55 37.05 121.55 39.55 121.1 42.7 121 43.2 121.1 43.65 121.15 44.45 120.45 45.35 118.8 45.85 117.8 46.2 116.85 46.55 115.9 46.55 115.35 46.55 114.8 46.2 114.35
M 53.25 110.35
Q 53.4 110.6 53.6 110.85 54.45 111.75 56.6 111.75 58.1 111.75 59 110.8 59.7 110 59.7 109.1 59.7 107.9 58.65 107.25 58.2 107 57.65 106.9
L 53.75 110
Q 53.5 110.2 53.25 110.35
M 133.3 70.4
Q 133.1 70.35 132.9 70.3
L 133 70.55
Q 133.15 70.5 133.3 70.4
M 104.5 72.65
Q 105.2 73.15 107.1 73.35 108.3 73.5 111.65 73.85 115.05 74.25 118.25 75.05 119.4 75.35 123.75 76.7 127.7 77.95 131.8 76.9 135.9 75.85 140.95 79.7 146.05 83.55 149.8 85
L 155.05 79.05
Q 155.45 78.55 156.4 78.05 155.55 77.7 154.85 77.6 154.8 77.6 154.75 77.6 153.6 78.5 153.2 78.85 153.1 79 152.9 78.9 146.45 75.15 137.1 72.1 136.65 71.8 135.75 72.3
L 133.65 72.7
Q 132.1 73.15 131.55 72.6 130.75 71.95 130.4 70.95 130.3 70.7 128.9 70.25 124.45 69.5 119.55 69.15 113.15 68.65 109.9 68.85 106.85 68.9 104.2 69.25 103.65 69.8 103.65 70.7 103.65 72.1 104.5 72.65
M 172.95 90.2
Q 169.65 87.5 165.45 84.45 161.35 81.9 157.65 79.9 156.35 79.35 155.7 79.95
L 143.35 93.45
Q 143.4 93.6 143.5 93.75 144.1 94.8 145.4 94.8 146.15 94.8 148.05 93.55 148.55 93.2 149.35 92.65 150 92.2 150.15 92.2 151.35 91.9 154.3 90.9 155.75 90.4 157.65 90.3 157.85 89.95 166.7 95.15 171.4 97.9 178.4 102.1 178.85 102.35 181.05 103.3 182.95 104.1 183.65 104.65 184.45 105.25 185.15 106.35 185.3 106.65 185.65 107.2 185.9 107.7 186.2 108 186.35 108.2 187.05 109.4 187.85 110.7 188.45 111.5 190.55 114.25 193.15 114.25 194 114.25 194.6 113.85 194.55 113.85 194.5 113.8 193.5 111.55 191.9 109.2 190.05 106.5 186.95 103.2 183.25 99.05 180.05 96.2 176.95 93.1 172.95 90.2 Z"/>

<path fill="#660033" stroke="none" d="
M 102.45 181.15
Q 102.4 181.15 102.35 181.15 102.3 181.15 102.25 181.15
L 102.2 181.15
Q 102.15 181.15 102.1 181.15
L 100.95 181.15 101.45 181.9
Q 101.95 182 102.85 182
L 106.65 182.05
Q 107.15 181.8 106.85 181.6 106.8 181.55 106.55 181.5 105.8 181.35 103.1 181.2
L 103.05 181.2
Q 103 181.2 102.95 181.2 102.85 181.2 102.8 181.2
L 102.7 181.2
Q 102.65 181.2 102.55 181.2 102.5 181.15 102.45 181.15
M 98.45 168.25
Q 98.4 168.15 98.4 168.1 97.95 167.55 97.3 168.1
L 93.85 170.55 93.6 170.9 93.95 171.4
Q 94.05 171.45 94.15 171.45 94.7 171.45 95 171.2
L 98.45 168.25
M 110.2 142.15
L 108.95 143.1
Q 105.25 145.85 103.45 149.35
L 100.65 157.2
Q 100.15 161.05 100.8 166.25
L 105.7 174.05
Q 107.9 177.25 111 180.65 117.9 181.5 120.9 181.3 122.6 180.75 120.85 180.65
L 111.25 179.8
Q 108.9 176.8 106.9 173.7
L 121.5 160.6 124.1 162.8 124.3 156.2
Q 122.75 157.7 120.75 158.85 116.9 150.7 111.65 143.15
L 116 140.7
Q 115.65 139.9 114.45 140.3 112.6 140.7 110.2 142.15
M 89.1 116.05
L 88.2 116.5 88 116.9
Q 87.8 117.35 88.2 117.8
L 94.2 124.9
Q 97.4 128.8 101.7 131.9 105.15 134.05 109.7 135.5 113.1 137.15 115 139.2
L 117.4 138.25 116.25 137.1
Q 114.35 134.85 110.95 133.65 107.6 132.4 101.95 128.95 98.85 126.75 96.35 123.9
L 89.1 116.05
M 107.5 117.1
Q 106.75 117.55 108.15 118.1 109.05 118.5 111.7 120.2 112.15 120.85 113.9 121.65
L 116.95 122.25
Q 118.25 122.45 117.85 121.95
L 114.5 120.75
Q 113.1 120.35 112.4 119.65
L 109 117.6
Q 108.25 117.1 107.5 117.1
M 109.45 112.7
Q 108.55 113.6 107.4 114.15 103.6 115.85 101.65 116.1 100 116.65 97.25 116.75
L 92.2 116.65
Q 91.2 116.6 91 116.9
L 91.95 117.7
Q 95.65 117.95 99.8 117.7 102.4 117.35 106.05 116.15 106.75 115.9 107.55 115.65 110.1 114.15 110.05 113.15 110.3 111.95 109.45 112.7
M 126 120.75
Q 126.4 120.35 126.95 120.55 133.35 122.4 137.8 124.65 141.5 126.65 144.9 129.4 145.15 129.6 145.05 130.2
L 144.85 131 144.4 133
Q 144.35 134.1 145.25 133.85
L 145.3 133.5 146.25 129.45
Q 144.1 126.75 138.35 123.6 133.45 121.2 126.55 119.4 125.6 119.25 125.2 120.1 124 122.25 122.9 125.5 122.65 126.2 122.4 126.95 122.2 128 121.85 128.8 121.75 129 121.65 129.2 118.85 131.45 116.05 132.7 115.25 133.2 115.35 133.75 115.8 134.55 117.15 134.05
L 122.7 131.6
Q 124.75 130.75 127.75 131.5 134.05 133 141.6 136.2 142.95 136.8 144.3 137.4 145.9 138.1 147.55 138.9 150.3 140.2 153.2 141.75 155.5 142.85 156.15 144.2
L 159 151.85
Q 159.75 154.45 158.7 156.7 156.3 164.8 152.9 171.95 151.75 174.25 150.35 175 148.4 176.1 146.4 177.15 145.35 177.7 144.3 178.25 142.3 179.25 140.3 180.2 137.9 181.25 135.5 182.25 133.5 182.7 131.25 181.45 129 180.15 126.95 178.45 126.5 178.1 126.6 176.95
L 126.85 171.05
Q 127.2 163.85 127.45 156.9
L 127.4 152.55
Q 126.85 149.2 124.75 145.9
L 124.65 145.1
Q 124.2 143.15 124.1 141.85 124.05 140.8 123.6 141.4 123.15 142 123.6 144.45 122.3 141.65 121.1 139.85 119.95 138.2 120.5 137.25
L 121.3 135.95
Q 121.4 135.7 121.2 135.4 120.7 135.15 120.15 135.55
L 119.2 137.3
Q 118.65 138.1 119.2 139.05 122.85 144.85 124.2 148.15 125.55 151.4 125.25 152.1 124.6 165.15 123.6 178.15 123.45 180.1 126.15 181.4
L 131.6 184.4
Q 133.1 185.25 135.5 184.45 143.85 181.65 152.4 176.4 153.85 175.7 154.95 173.95 155.1 173.6 155.25 173.3 158.8 165.85 161.65 157.1 162.35 155.75 162.45 153.85 162.65 151.45 159.15 143.4 158.65 141.85 157.25 140.9 152.2 138.4 146.05 135.7 145.8 135.6 145.6 135.5 135.45 130.5 125.15 128.35
L 123.6 128.2
Q 123.2 128.1 123.6 127.15
L 124.25 125.4 126 120.75
M 75.95 126.2
Q 75.25 124.65 74.8 124.1
L 71.85 124.7
Q 71.65 124.75 71.85 125.05
L 77.3 135.7
Q 79.4 139.65 80.75 143.55 82.75 149.75 83.5 155.95 84.15 161.75 85.55 165 86.65 168 90.3 172.9 96.75 181.55 102.5 190.4 106.3 196.45 109.55 199.65 113.5 201.8 118.2 199.9 124.45 197.05 130.5 192.8 133.75 190 136.55 186.05 135.25 186.45 134.2 186.5 132.9 186.55 132.55 186.3
L 130.6 188.6
Q 127.55 191.9 123.15 194.1
L 116.65 197.6
Q 113.15 198.8 111 196.75 108.15 193.3 105.95 189.75
L 93 171.4
Q 90.7 168.85 88.7 164.55 87.65 162.1 86.85 158.3 86.4 151.35 83.75 143.55 82.6 139.75 80.7 135.7
L 75.95 126.2
M 64.3 121.5
Q 64.25 121.2 64 121.1 63.7 121 63.55 121.15
L 63.3 125.45
Q 63.25 126.2 63.1 126.95 62.8 128.85 62.15 130.65 62 130.9 61.85 131.2 60.85 133.1 59.55 134.7
L 56.1 138
Q 55.95 138.25 55.9 138.45 55.65 139.1 55.9 139.6 56.2 140.4 56.9 140.75 58.45 141 59.45 141.15 60.15 141.25 60.6 141.25 61.75 141.25 62.65 140.85 64.5 139.7 65.2 138.65 66.55 136.9 67.45 135.15
L 69.75 130.4
Q 70.05 129.75 69.75 129.75 69.35 129.65 69.05 130.25
L 66.9 134.65
Q 66 136.5 64.55 138.25 63.4 139.45 62.05 140.25 61.05 140.45 60.1 140.35 59.9 140.35 59.7 140.35 58.45 140.25 57.25 139.85 57 139.65 56.8 139.1 56.8 138.6 57.4 137.95 58.85 136.85 60.15 135.45
L 60.3 135.25
Q 60.3 135.2 60.35 135.2
L 60.5 135 60.55 134.95
Q 60.6 134.95 60.6 134.9
L 62 133
Q 62 132.95 62.05 132.9 62.1 132.8 62.15 132.7 62.2 132.65 62.25 132.6 62.25 132.55 62.3 132.5 62.4 132.35 62.5 132.15 62.55 132.05 62.65 131.9 62.7 131.75 62.8 131.65 62.85 131.5 62.9 131.4 63 131.2 63.15 131 63.6 130.15 64.05 127.15 64.15 126.55 64.25 125.85 64.4 123.6 64.3 121.5
M 69 116.45
Q 68.15 117.6 68.4 118.8
L 69.2 122.45
Q 69.6 124.3 70.3 124.25 70.45 124.25 70.55 124.25 70.95 124.2 71.45 124.15 71.85 124.05 72.25 124 75.35 123.5 77.35 122.6 77.8 122.4 77.65 122.05 77.55 121.7 76.25 121.95 75 122.25 72.5 122.85 72.1 122.9 71.85 122.15
L 70.6 118.3
Q 70.6 117.85 71 117.5 73.5 116.1 76.55 114.3 79.15 112.25 81.75 111.25 84.9 113.3 86.55 115.1 86 115.85 85.15 116.7 84.85 117 84.8 117.4 85.25 117.9 85.7 117.65
L 88.65 114.7
Q 89.15 114.2 88.95 113.9
L 87.75 112.7
Q 86.4 111.15 82.5 108.9 81.1 108.7 80.15 109.5
L 74.8 113.1
Q 69.35 115.85 69 116.45
M 83.85 86.95
Q 83.45 88 83.25 89.05 82.55 93.1 85.25 97.35 87.3 99.95 95.05 104.1 100.75 105.4 105.65 105.2 113.55 104.35 116.65 99.55 118.3 97.5 119.05 95.15
L 119.1 95.1 119.6 89.3
Q 119.6 89.25 119.6 89.2
L 119.6 89.15
Q 119.6 89.05 119.55 89 119.55 88.95 119.55 88.9 119.55 88.8 119.55 88.75 119.55 88.7 119.5 88.65 119.5 88.55 119.5 88.45 119.5 88.35 119.45 88.3 119.4 87.95 119.35 87.6
L 119.35 87.55
Q 119.15 86.65 118.9 85.75 118.8 85.4 118.7 85.05 115 78.2 111.35 76.95 107.9 74.8 99 74.5 91.6 75.6 88.7 78.75 85.85 81.95 83.85 86.95
M 86.05 84.85
Q 87.55 81.7 89.5 79.5 92.25 76.5 99.2 75.5 107.45 75.8 110.7 77.8 114.1 79 117.55 85.4 118.6 88.65 118.5 91.5 118.3 95.65 115.65 98.9 112.75 103.4 105.4 104.2 100.8 104.4 95.45 103.15 88.2 99.3 86.3 96.85 83.15 91.85 85 87.15 85.5 85.95 86.05 84.85
M 111.35 85.7
Q 109.6 85.45 108.65 86.05 106.3 87.3 107.05 90.25 107.9 91.9 109.35 92.45 111.4 92.85 112.9 91.85 113.2 91.5 113.45 91.1 114.25 89.7 113.85 88.25 113.65 87.4 113.1 86.8 112.45 86.05 111.35 85.7
M 88.1 66.85
Q 85.95 65.95 81.15 65.8 76.35 65.6 71.8 68.25 67.35 71.25 64.8 75.1 62.15 79.75 62 84.35 61.85 88.95 66.15 93.7
L 66.7 92.65
Q 63.05 87.9 63.05 84.75 63.15 80 65.75 75.8 68.4 71.7 72.05 69.5
L 74.8 67.9
Q 74.25 68.65 74.7 69.45 75.35 70.4 76.95 70.4 78.5 70.6 79.65 70.2 80.7 69.75 80.85 68.9 81.05 68 80.45 67.35 80.2 67 78.9 66.85
L 80.1 66.75
Q 84.15 66.65 87.45 67.5 90.3 68.6 92.2 70.3
L 93.25 69.8
Q 91.3 68.05 88.1 66.85
M 82.1 46.35
L 84.25 46.6
Q 87.45 46.9 90.4 46.55 91.7 46.45 92.3 46.3 93.55 46 91.8 45.65 86.15 45.85 80.25 44.9 78.3 43.75 77.65 42.65 77 41.6 75.75 40.6 74.55 39.55 74.25 39.55 73.95 39.5 73.7 39.8 73.4 40.1 73.4 40.7 73.35 41.3 73.35 41.45 73.35 41.6 73.4 43.05 73.45 44.55 73.85 49.15
L 74.1 49.6
Q 80.85 54.7 87.45 61.95 95.65 62.55 101.45 64.65 102.65 64.95 102.65 64.55 102.65 64.4 102.5 64.15 95.65 61.35 87.9 61.05 86.25 59.05 83.5 56.35 80.8 53.7 76.3 48.5 74.65 45.6 75.5 43.35 75.5 43 76.8 43.9 78.1 44.8 78.7 45.35 79.3 45.9 79.6 46 79.9 46.05 80.45 46.55
L 81.35 47.45
Q 82.15 47.9 82.1 46.35
M 124.55 28.75
Q 124.5 28.65 124.4 28.45 122.75 27.05 121.45 25.85 118.85 23.45 118.85 22.85 118.85 22.2 119 21.8 116.3 18.75 113.35 15.95 112 15.3 107.9 14.6 106.35 14.35 103.85 14 101.15 13.6 100.5 13.5
L 93.35 13.5
Q 91.25 13.4 90.05 15.05 89.6 15.65 89.35 16.45 89.15 17.05 89.15 17.55 89.15 17.8 89.45 19.5 89.75 21.2 89.75 21.45 89.75 22.5 90.15 23.4 90.6 24.4 91.55 25.4 92.2 26.05 92.85 27.35 93.5 28.75 94 29.3 95.2 30.7 95.55 31.3 96 32.15 96 33.15 96 34.25 95.8 34.9 95.55 35.5 95.4 36.5
L 94.45 53.65
Q 94.7 54.45 95.3 53.9 95.65 52.6 95.85 50.45 96.2 45.85 96.95 41.45
L 97.6 33.3
Q 97.8 31.75 96.55 30.45
L 92.95 26.75
Q 91.5 24.8 90.9 23 90.6 21.95 90.4 19.35 90.45 17.35 91.45 16.75 92.15 16.3 94.85 16.1 95.15 16.05 96.55 16.05 98.65 16.1 103.1 16.3 106.15 16.35 112 17.6 113.65 18.65 116.5 21.6 119.35 24.6 122.45 29 125.3 32.65 126.9 35.7 127.2 36.4 127.2 36.9
L 127.2 37.6
Q 126.95 39.95 126.45 42.75
L 125.9 46.2 124.45 55
Q 123.55 59.45 122.8 63.9 123.3 64.55 123.85 63.75
L 126.7 51.25
Q 127.3 48.2 127.8 45.15 128.1 43.4 128.4 41.65 128.8 39.25 129.15 36.85 129.2 36 128.85 35 128.8 35 128.75 35 128.3 35 126.8 32.55 125.1 29.6 124.55 28.75
M 122.3 229.7
Q 122.7 229.3 121.75 228.95 119.4 228.4 117.05 228.05 114.75 227.65 113.1 227.5 111.75 227.45 110.95 227.95 110.9 228 110.85 228
L 110.8 228.05
Q 110 228.6 109.65 229.5 109.3 234.35 109.35 236.5 109.4 238.6 109.35 240.05 109.75 240.15 110.1 240.25 111.15 240.7 111.15 241.5 111.15 241.75 110.9 242.05 110.7 242.25 110.45 242.3 111.3 242.65 112.15 243 113 243.3 113.75 243.55 114.25 243.75 114.7 243.9 116.85 244.55 117.2 244
L 117.65 242.85
Q 117.9 242.15 116.25 241.6
L 112.25 240.65
Q 111.25 240.5 110.85 239.7 110.8 239.2 110.75 238.7 110.4 238.7 110.2 238.35 110.1 238.15 110.1 238 110.1 237.65 110.3 237.45 110.45 237.3 110.65 237.25 110.55 235.45 110.65 233.5
L 110.75 230.25
Q 110.9 229.8 111.25 229.5 111.55 229.15 112.05 229
L 112.05 228.95
Q 112.9 228.7 114.1 228.85 117.9 229.5 121.45 229.95 122.1 230.05 122.3 229.75
L 122.3 229.7
M 146.15 211.8
Q 146.95 210.8 146.65 210.55
L 146.55 210.45
Q 146.3 210.15 145.1 210.9 143.25 212.05 140.3 213.7 131.4 218.5 130.95 219 129.9 219.95 128.95 221 127.7 222.3 126.85 223.95 125.45 226.65 124.1 229.7 123.05 232 123.8 231.5 122.05 234.55 122 234.65
L 118.75 243.25
Q 118.5 243.9 118.55 244.45 118.6 245.15 119.15 245.65 120.6 246.65 122.25 246.85 125.65 247.85 132.15 246.3 132.6 246.2 133 246.1 137.1 245.1 141.1 243.85 144.15 242.95 147.05 241.85 150.2 240.7 152.55 239.6
L 152.55 239.55
Q 152.55 239.3 152.8 239.2 152.95 239.1 153.3 238.95 154.35 238.65 154.7 238.3 154.9 238.15 155.7 237.6 156.6 237 156.7 236.9 156.6 236.8 156.55 236.7 156.5 236.65 156.5 236.5 157.1 235.85 157.7 235.3 157.2 234.5 156.15 234.75
L 146.15 239.35 131.75 243.5
Q 127.65 244.7 122.85 244.9 121.35 244.8 120.7 244.5 119.8 244.15 120.25 243 120.35 242.65 120.5 242.3 120.6 241.9 120.75 241.55 121.5 239.35 122.45 237.2 122.45 237.15 122.5 237.05
L 123.25 235.3
Q 125.45 229.75 128.2 224.45 129 222.9 130.15 221.75 130.9 220.75 132 219.95 136.75 217.2 141.4 214.65
L 146.15 211.8
M 156 186.4
L 155.9 186.45
Q 155.85 186.45 155.8 186.5 155.15 186.8 154.7 187.35
L 151.6 192.9
Q 149.05 197.9 146.65 202.75 146.45 203.65 146.5 204.3 146.7 206.4 147.55 208.9 147.55 208.95 147.6 208.95
L 147.6 209.1 151.35 217.7
Q 151.75 217.5 152.4 220.15
L 152.8 221.05
Q 154.75 225.5 156.3 228.45 157.8 231.4 158.6 233.1 158.75 233.5 159 233.8 159.05 233.85 159.1 233.9
L 159.35 234.15
Q 159.85 233.95 159.85 234.55 160.5 234.9 161.4 235 162.25 235.1 163.2 234.7 163.4 234.6 163.65 234.5 167 232.5 170.2 230.15 173.7 228.05 176.9 225.25 179.5 223 181.9 220.3 184.8 217.25 187.45 212.75 187.4 212.65 187.4 212.6 187.4 212.45 187.85 211.6 188.3 210.75 188.45 210.6 188.25 210.45 188.2 210.25 188.2 210.2 188.2 209.95
L 188.55 209.1
Q 188.15 208.8 187.45 208.75 186.05 210 185.05 211.7 182.55 215.45 179.3 218.95 176.7 222.25 174.05 224.45 171.35 226.65 168.8 228.3
L 162.65 232.15
Q 161.45 232.8 160.4 232.25 159.45 231.75 159.1 230.95 158.9 230.6 158.65 230.2 154.45 222.7 151.35 214.95
L 148.4 207.35
Q 147.85 205.55 147.75 204.9 147.65 203.9 148.25 202.5
L 150.25 198.6
Q 151.65 195.05 153.4 192.4
L 155.7 188.1
Q 156.55 186.55 156 186.4
M 79.35 196.85
Q 76.9 194.15 75.1 193.05 73.2 192.05 70.85 191.95 66.5 192.05 61.95 193.7 57.4 195.35 53.25 197.45 49.55 199.5 47 202.2 45.4 204.3 45.8 205.05 45.8 205.55 47.65 207
L 79.3 225.75
Q 79.75 226.05 80.25 226.35 92 233.75 104.9 240.55 105.15 240.4 105.55 240.3 106.55 240 107.85 239.95 108.15 239.95 108.45 239.95 108.1 239.1 106.3 238.3
L 105.45 237.9 56.15 208.95 50.35 205.45
Q 48.6 204.1 49.05 202.75 49.5 201.4 53.85 198.55 57.8 196.15 66.7 193.5 70.55 192.85 72.55 193.2 73.9 193.45 75.7 195 79.55 198.3 83.45 202.8 83.55 202.9 83.65 203.05
L 83.7 203.05
Q 84.4 203.05 86.7 206 87.9 207.55 89.6 209.95 90.1 210.55 91.3 211.8 91.95 212.45 92.35 212.9 92.45 212.95 92.55 213 93.15 213.45 93.7 214.3 93.85 214.5 94 214.7 94.35 215.1 94.8 215.5 95 215.55 95.35 215.8 95.95 216.2 96.55 216.9 97.85 218.25 99.15 219.4 99.4 219.65 99.75 220.05 100 220.15 100.25 220.35 101 220.85 101.95 221.8 102.45 221.95 102.9 222.25 103 222.15 102.85 221.95
L 96.5 215.95
Q 91 210.1 85.1 203
L 84 201.75 80.65 198.05
Q 80.3 197.8 80.55 197.6 82.1 197.2 83.55 197.2 87.9 197 92 198.55 97.15 200.55 99.55 204.45 102.4 209.35 107.55 221.35 107.8 221.85 108.05 222.4 108.15 222.45 108.2 222.55 108.55 222.85 109.35 223.85
L 109.4 223.85
Q 109.6 223.75 109.5 223.35 108.7 221 107.05 217.45 104.1 210.65 100.35 203.45 98.1 200.4 94.8 198.65 92.05 197.25 87.85 196.4 82.9 196.05 79.35 196.85
M 163.2 186.05
Q 162.9 185.9 162.65 185.75 162.5 185.65 162.3 185.55 161.6 185.1 160.8 184.7 160.4 184.45 160 184.25 156.8 181.15 156.25 177.95 155.95 177.55 155.7 177.6 155.45 177.65 155.3 178.05 155.05 179.9 156.2 181.7 156.75 182.55 157.7 183.6 158.4 184.35 159.3 185.2 164.55 188.05 168.45 191.05 168.5 191.05 168.55 191.1
L 170.55 192.5
Q 170.6 192.5 170.6 192.55 177.45 197.4 185.45 204.15 187.2 205.5 188 205.85 188.05 205.9 188.1 205.9
L 188.1 205.95
Q 188.2 205.95 188.25 206
L 188.3 206.05
Q 188.8 206.3 189.45 206.4 189.65 206.3 189.85 206.2 189.75 206.3 189.65 206.4 190.5 206.5 191.55 206.35 193.45 206.05 197.05 203.4 199.85 201.1 202.75 194.8 203.55 192.4 204.25 189.9 205.8 184.6 207.05 178.9 207.2 178.4 207.35 177.85 208.1 174.95 208.45 171.25 208.6 169.25 207.9 168.95 207.65 168.85 207.4 168.8 206.75 168.75 206.1 169.25 205.05 170.1 205.05 171.1
L 203.35 179.15
Q 199.55 195.1 194.9 200.65 193.7 202.05 192.45 203.05 191.55 203.8 190.6 204.35 189.6 204.95 188.2 203.9
L 173.75 193.1
Q 173.65 193.05 173.6 193
L 173.55 192.95 163.7 186.35
Q 163.45 186.2 163.2 186.05
M 204.65 129.35
Q 204.25 127.9 203.8 126.55
L 201.6 119.6 201.25 118.55
Q 200.95 117.6 200.6 116.75 200.25 115.85 199.85 115.05 199.2 114.4 198.3 114.4 197.55 114.4 196.9 114.45
L 195.95 114.6
Q 188.65 115.9 181.75 117.45
L 160.7 122.25
Q 159.75 122.6 159.7 122.95 159.5 123.5 161.95 123 162.15 123 162.35 122.95
L 188.25 117.15 195.95 115.85
Q 197.2 115.65 197.45 116.3
L 201.55 128.95
Q 205.35 142.5 205.25 161.6 205.25 162.2 205.2 162.7 205 164.65 204.05 165.45 203.15 166.2 201.95 166.4
L 201.9 166.4
Q 201.15 166.5 200.3 166.45
L 168.55 159.3
Q 165 158.5 164.4 158.8 163.55 159.25 165.85 159.85
L 169.55 160.4 200.25 167.95
Q 202.25 168.4 204 167.65 204.65 167.45 205.2 167.1 204.95 166.1 205.25 166.5 205.4 166.75 205.4 166.6 205.45 166.4 205.4 166.2 205.85 166.5 205.95 166.15 206.05 166.3 206.15 166.45 206.45 166.2 206.7 165.9 207.75 164.7 208 160.5 208 155.15 207.65 149.7 207.5 147.7 207.3 145.65 206.8 139.7 205.8 134.55 205.3 131.85 204.65 129.35
M 104.25 67.35
Q 103.95 67.35 103.6 67.4 100.5 67.75 97.7 68.65 95.3 69.45 91.55 71.5 88.6 72.15 86 71.75 84.3 71.1 82.4 72.2
L 74.1 78.65
Q 73.25 79.4 71.6 82.95 70.65 85.65 69.3 88.3
L 66.65 94.15
Q 65.3 96.8 63.5 99.45 62 101.65 59.35 104.1 57.8 105.45 56.1 106.85 54.8 107.9 53.4 108.95 53.2 109.1 53.05 109.25 50.5 111.15 47.35 112.7
L 45.9 113.35
Q 45.5 113.45 45.1 113.5 37.1 114.95 36.3 115.4 36 115.5 35.7 115.65 27.05 119.1 23.8 121.75 21.9 123 20.3 124.35 19.15 125.5 18.45 126.6 17.75 127.6 17.45 128.6
L 16.4 133.75
Q 16.3 136.7 18.6 138.4 19.8 139.7 21.45 139.65 21.55 139.65 21.6 139.65 23.2 139.5 25.7 137.6 25.95 137.25 26.15 136.85 26.9 135.5 27.35 133.65 27.5 132.85 27.65 131.95 27.75 131.3 27.95 130.65 28.4 128.9 29.5 127.25 30.85 125.25 33.15 123.85 33.25 123.8 33.4 123.7 34.2 123.2 37.15 122.5 40.4 122 43.3 122.1 46.35 122.7 50.55 122.5 48.5 124.7 46.55 126.8 42.55 130.6 38.2 133.85 37.4 134.5 36.65 135.15 35 136.6 33.65 137.9 32.7 138.8 31.95 139.65 30.95 141 30.35 142.15 29.3 144.2 29.45 145.55 29.7 147.65 31.05 148.75 32.1 149.75 33.45 150.4 33.55 150.45 33.65 150.45 36.2 150.7 39.15 148.8 40.25 147.85 41.2 146.85 43.05 145.05 44.35 143.2 44.45 143.05 44.6 142.9 45.15 142.2 45.7 141.55 47.1 139.85 48.45 138.15 49.35 137.1 50.2 136
L 58.45 125.9
Q 60.1 124.25 62.45 122.85 62.9 122.6 63.05 121.85
L 63.1 121.6
Q 61.1 122.25 59.4 123.65 56.75 125.95 54.55 128.9
L 53.5 130.15 50.65 133.55 47.5 137.4 44.75 140.8 43.9 141.9 40.85 145.65
Q 40.6 145.95 40.35 146.2 39 147.45 37.3 148.65
L 35.2 149.25
Q 35.1 149.25 35.05 149.25 34.05 149.3 33.25 148.9 31.6 148.05 30.9 146.8 30.15 145.45 31.05 143.55 31.3 142.9 31.7 142.2 31.75 142.2 31.75 142.15
L 31.75 142.1
Q 31.8 142.1 31.8 142.05
L 33.4 139.6
Q 33.4 139.55 33.45 139.5 33.55 139.35 33.7 139.2 36.2 137.1 38.7 135.05 40.9 133.25 43.1 131.45 47.2 127.85 50.9 123.45 51.7 122.5 52.3 121.95
L 57 120.95 64.05 117.6 68.2 114.75 71.05 112.25 71.15 111.55 69.55 112.25 65.3 115.65 59.05 119.15 53.95 120.65 48.65 121.55
Q 46.25 121.5 43.65 121.15 43.2 121.1 42.7 121 39.55 121.1 37.05 121.55 36.8 121.55 36.55 121.6 34.25 121.9 32.5 122.9 32.45 122.95 32.35 123 29.8 124.7 28.45 126.75 27.35 128.45 26.85 130.7 26.75 131.2 26.7 131.65 26.6 132.25 26.5 132.8 26.05 134.95 25.15 136.65 25 136.8 24.85 136.95 23.45 138.2 21.7 138.55 21.65 138.6 21.55 138.6 20.55 138.8 19.25 137.8 17.1 136.3 17.35 133.7
L 17.95 130.95 18.35 129
Q 18.5 128.4 18.85 127.8 19.55 126.6 21.05 125.3 21.35 125 21.75 124.65 22.75 123.85 24.1 122.9 26.05 121.6 28.1 120.4 30.05 119.3 33.3 117.85 34.7 117.25 36.3 116.6 39.05 115.7 45.95 114.45
L 46.2 114.35 47.8 113.6
Q 50.15 112.55 53.25 110.35 53.5 110.2 53.75 110
L 57.65 106.9 58.75 106.05
Q 61.2 104.05 62.7 102.05 65 99.05 66.5 96.25 66.85 95.5 67.2 94.8 67.15 94.75 67.15 94.7
L 67.15 94.5
Q 67.15 94.15 67.6 93.55 68.25 92.7 68.25 92.65 68.4 92.45 68.45 92.3 68.5 92.2 68.6 92.05 68.65 91.85 68.65 91.75 68.65 91.35 68.9 91.2 68.95 91.2 69 91.2 69.25 90.7 69.45 90.25 71 87.05 72.75 82.95 73.7 80.85 74.75 79.7
L 81.8 74
Q 83 73.1 84.4 73 86.9 73.6 90.5 73.45 91.9 73.35 92.45 73.1
L 94.85 71.95
Q 98.55 69.95 104.2 69.25 106.85 68.9 109.9 68.85 113.15 68.65 119.55 69.15 124.45 69.5 128.9 70.25 130.3 70.7 130.4 70.95 130.75 71.95 131.55 72.6 132.1 73.15 133.65 72.7
L 135.75 72.3
Q 136.65 71.8 137.1 72.1 146.45 75.15 152.9 78.9 153.1 79 153.2 78.85 153.6 78.5 154.75 77.6 154.75 77.55 154.8 77.55 155.15 77.25 155.6 76.9 155.7 76.75 156.3 76.75
L 141.8 70.9
Q 140.15 70.3 137.95 69.8 135.9 69.3 133.3 70.4 133.15 70.5 133 70.55
L 132.9 70.3 132.75 69.95
Q 132.4 69.25 130.6 68.75 126.7 68.05 122.6 67.6
L 115.1 67.1
Q 115.05 67.1 115 67.1 114.9 67.1 114.85 67.1 109.2 66.75 104.25 67.35
M 165.45 84.45
Q 169.65 87.5 172.95 90.2 176.95 93.1 180.05 96.2 183.25 99.05 186.95 103.2 190.05 106.5 191.9 109.2 193.5 111.55 194.5 113.8 194.55 113.85 194.6 113.85 195.05 114 196 113.75
L 196.05 113.75
Q 196.15 113.7 196.25 113.65 197.05 113.4 196.9 113.05
L 196.45 111.85
Q 195.05 109.25 193.15 106.9
L 187.6 100.35 181.35 93.8
Q 178.6 90.8 175.05 88 171.35 85.05 167.1 82.15
L 159.45 77.9
Q 158.3 77.55 157.65 77.65 157.05 77.75 156.7 77.9 156.55 77.95 156.4 78.05 155.45 78.55 155.05 79.05
L 149.8 85 140.45 96.05
Q 140.25 96.35 140.7 96.3
L 143.35 93.45 155.7 79.95
Q 156.35 79.35 157.65 79.9 161.35 81.9 165.45 84.45 Z"/>

<path fill="#CC3366" stroke="none" d="
M 110.5 227.7
Q 110.65 227.85 110.8 228.05
L 110.85 228
Q 110.9 228 110.95 227.95
L 110.8 227.6
Q 110.65 227.65 110.5 227.7
M 109.4 223.85
L 109.35 223.85
Q 109.4 223.9 109.45 223.95
L 109.4 223.85
M 159 233.8
Q 159.1 234.05 159.15 234.2 159.25 234.15 159.35 234.15
L 159.1 233.9
Q 159.05 233.85 159 233.8
M 206.15 166.45
Q 206.05 166.3 205.95 166.15
L 206 166.55
Q 206.05 166.5 206.15 166.45
M 154.8 77.55
Q 154.75 77.55 154.75 77.6 154.8 77.6 154.85 77.6
L 154.8 77.55 Z"/>
</g>
</defs>

<g transform="matrix( 1, 0, 0, 1, 0,0) ">
<use xlink:href="#Layer9_0_FILL"/>
</g>

<g transform="matrix( 1, 0, 0, 1, 0,0) ">
<use xlink:href="#Layer8_0_FILL"/>
</g>

<g transform="matrix( 1, 0, 0, 1, 0,0) ">
<use xlink:href="#Layer7_0_FILL"/>
</g>

<g transform="matrix( 1, 0, 0, 1, 0,0) ">
<use xlink:href="#Layer5_0_FILL"/>
</g>

<g transform="matrix( 1, 0, 0, 1, 0,0) ">
<use xlink:href="#Layer4_0_FILL"/>
</g>

<g transform="matrix( 1, 0, 0, 1, 0,0) ">
<use xlink:href="#Layer3_0_FILL"/>
</g>
</svg>
