
<svg xmlns="http://www.w3.org/2000/svg" version="1.1" xmlns:xlink="http://www.w3.org/1999/xlink" preserveAspectRatio="none" x="0px" y="0px" width="2337px" height="2849px" viewBox="0 0 2337 2849">
<path fill="#2c3e50" id="marvellous_logo" d="
M 1339.65 770.8
Q 1355.05 775.8 1355.95 778.95 1360.05 789.85 1368.85 796.7 1374.7 802.75 1391.7 798.05
L 1414.5 793.6
Q 1424.8 788.2 1429.5 791.5 1532.2 825.05 1603.2 865.95 1605 867 1606.45 865.6 1612.45 860 1632.7 843.95 1633.95 842.45 1640.05 842.5
L 1481.3 778.3
Q 1463.05 771.85 1439.15 766.05 1415.2 760.2 1384.85 774.35
L 1381.65 767.9
Q 1377.85 759.85 1358.5 754.4 1274.8 739.35 1185.45 736.4 1123.3 732.75 1069.05 738.95 1030.85 742.85 997 753.75 970.55 762.3 929.75 784.75 897.3 791.75 868.5 787.25 850.1 780.5 829.3 792.6
L 738.25 863.5
Q 728.6 871.2 710.95 910.55 700 939.9 685.55 969.4
L 656.4 1033.3
Q 641.45 1062.45 621.65 1091.55 605.45 1115.5 576 1142.3 546.55 1169.1 510.8 1195.9 481.6 1218.95 444.5 1237.15
L 428.35 1244.25
Q 332.5712890625 1261.4197265625 323.25 1266.65 222.705078125 1305.981640625 186 1336.15 165.03515625 1350.049609375 147.75 1364.65 122.7521484375 1389.712109375 116.5 1411.25
L 104.85 1467.9
Q 103.47421875 1500.5908203125 128.7 1519.25 142.315234375 1533.217578125 160.1 1532.6 177.9310546875 1532.025390625 207.05 1510.3 222.6435546875 1486.8962890625 228.25 1448.3 232.391796875 1421.5666015625 248.85 1396.65 264.0791015625 1373.5326171875 291.3 1357.9 300.3953125 1352.3185546875 332.55 1344.5 368.3703125 1339.1849609375 399.8 1340.3 433.6357421875 1346.7140625 479.75 1344.5 456.991015625 1368.5908203125 435.8 1391.75 391.87109375 1433.6669921875 344.2 1468.95 302.7583984375 1502.96796875 275.35 1532.5 245.268359375 1574.094140625 248.05 1597.45 250.8748046875 1620.7939453125 265.85 1632.6 278.0099609375 1644.4859375 294.25 1651.55 322.0830078125 1654.105078125 354.45 1632.95 389.3212890625 1603.2880859375 411.45 1571.7 444.4689453125 1531.4228515625 476 1492.55
L 520.55 1437.7 566.55 1382.1
Q 584.342578125 1363.659375 610.05 1348.25 616.0671875 1344.8267578125 617.45 1334.45 595.690234375 1341.9212890625 576.65 1357.25 547.523046875 1382.3359375 523.7 1414.95
L 469.7 1478.5 373.35 1598.7
Q 356.8759765625 1615.92890625 334.15 1631.55 307.519140625 1643.4181640625 289.95 1634.2 271.9037109375 1624.8958984375 264.15 1611.45 255.8642578125 1596.2732421875 265.4 1575.4 274.9837890625 1554.5291015625 294.45 1527.55 346.428125 1485.078125 397.7 1442.5 442.58515625 1403.490625 483.45 1355.1 492.084765625 1344.3990234375 498.75 1338.25
L 550.2 1327.55 628.05 1290.5 673.6 1259.25 704.8 1232.25 705.9 1224.3 688.4 1232.25 641.8 1269.3 572.95 1308 516.85 1324.4 458.6 1333.95
Q 427.701171875 1333.5880859375 393.45 1328.1 359.020703125 1329.2861328125 331.5 1333.95 302.6140625 1336.926171875 281.5 1349.15 252.0541015625 1368.2080078125 237.2 1391.15 222.340625 1414.128125 217.8 1445.2 213.264453125 1476.2826171875 200.7 1500.1 184.3826171875 1516.541796875 163.1 1520.85 151.152734375 1524.20625 136.1 1512.4 112.7033203125 1496.122265625 115 1467.3
L 126.25 1415.95
Q 131.4189453125 1396.4888671875 155.65 1375 168.9177734375 1363.1107421875 189.6 1348.75 210.482421875 1334.422265625 233.1 1321.6 263.2912109375 1304.5900390625 323 1279.9 353.5076171875 1270.148046875 429.1 1256.35
L 449.2 1247
Q 477.2 1234.6 514.85 1207.25
L 569.45 1163.75
Q 596.8 1142 613 1120.2 638.4 1087.35 654.45 1056.25 670.45 1025.15 687.3 990.3 704.1 955.4 723.1 910.6 733.85 887.45 745.3 874.95
L 822.75 812
Q 836 802.15 850.9 801.2 878.45 807.75 917.9 806.4 933.55 805.3 939.65 802.3
L 965.9 789.45
Q 1025.65 757.45 1130.9 755.55 1166.55 753.35 1237.2 759.2 1290.65 763 1339.65 770.8
M 1988.35 2324.65
L 2000.4 2306.45
Q 1999.644921875 2293.001953125 1982 2290.95 1966.86328125 2304.6634765625 1955.6 2323.5 1928.219921875 2364.631640625 1892.55 2403 1863.975 2439.2791015625 1835.4 2463.45 1805.4384765625 2487.901953125 1777.7 2505.7
L 1710.15 2547.9
Q 1696.8 2555.02265625 1685.15 2549.3 1675.0705078125 2543.7826171875 1671.1 2535.05 1621.484375 2448.746875 1586.2 2359.1
L 1553.8 2276.05
Q 1547.4005859375 2255.9892578125 1546.65 2248.8 1545.5546875 2238.2052734375 1551.75 2222.35
L 1574.05 2179.8
Q 1589.5607421875 2140.977734375 1608.5 2111.95
L 1633.8 2064.35
Q 1642.920703125 2047.5400390625 1636.85 2046.1 1628.2951171875 2049.2599609375 1622.7 2056.25
L 1588.7 2117.1
Q 1560.78828125 2171.875 1534.55 2225.4 1532.4044921875 2235.3142578125 1532.6 2242.45 1535.1234375 2266.3599609375 1545.1 2295.1
L 1601.65 2426
Q 1623.026171875 2474.8951171875 1640 2507.25 1657.0248046875 2539.6494140625 1665.5 2558.3 1673.976171875 2577.012109375 1696.25 2579.55 1708.0875 2580.4912109375 1720.95 2573.85 1757.905859375 2551.5974609375 1792.85 2526.25 1862.7904296875 2483.6431640625 1921.5 2417.85 1956.213671875 2381.1099609375 1988.35 2324.65
M 2212.95 1879.45
Q 2214.4599609375 1857.7822265625 2206.5 1854.25 2196.8453125 1850.22265625 2186.7 1857.45 2175.4724609375 1867.109765625 2175.65 1878.1
L 2156.85 1966.1
Q 2115.1919921875 2141.2169921875 2063.75 2202.25 2040.9861328125 2228.524609375 2016.95 2242.85 2005.981640625 2249.355078125 1990.5 2237.75
L 1831.65 2119.25
Q 1769.65390625 2070.854296875 1680.85 2022.05 1645.5314453125 1988.51640625 1639.7 1953.15 1633.3880859375 1944.704296875 1629.35 1954.45 1626.413671875 1974.45234375 1639.3 1994.55 1649.7599609375 2010.7498046875 1673.1 2032.65 1730.600390625 2064.140625 1773.5 2096.65 1858.6275390625 2154.44609375 1960.25 2240.75 1980.790234375 2256.440234375 1989.35 2260.15 2003.076171875 2268.5431640625 2027.05 2264.8 2047.99375 2261.68515625 2087.6 2232.35 2118.262890625 2207.44609375 2150.3 2138 2176.7876953125 2056.079296875 2197.45 1963.5 2208.2275390625 1927.351953125 2212.95 1879.45
M 1244.5 2667.35
Q 1258.558984375 2625.225390625 1277.75 2582.8 1301.46328125 2521.751953125 1331.65 2463.45 1340.605078125 2446.55234375 1353.35 2433.85 1361.502734375 2422.932421875 1373.35 2413.95 1425.475390625 2383.996875 1476.6 2355.7
L 1528.7 2324.8
Q 1537.68359375 2313.8587890625 1534.2 2311.1 1532.507421875 2305.409765625 1517.65 2314.65 1496.9822265625 2327.609765625 1464.5 2345.6 1367.1693359375 2397.9255859375 1362.25 2403.55 1350.7720703125 2413.8603515625 1339.9 2425.45 1326.3146484375 2440.0216796875 1317.35 2458.25 1289.9806640625 2510.3388671875 1263.95 2575.45
L 1228.15 2669.9
Q 1222.1947265625 2686.5314453125 1232.7 2695.95 1248.6775390625 2706.881640625 1266.55 2709.6 1304.001171875 2720.4923828125 1375.35 2703.25 1459.0642578125 2683.858203125 1539 2654.45 1593.9755859375 2634.2447265625 1628 2614.65 1662.073046875 2595.044140625 1657.1 2584.8 1651.708984375 2573.6357421875 1638.45 2576.3
L 1528.65 2626.95 1371 2672.8
Q 1325.61015625 2685.5115234375 1273.05 2688.1 1256.7201171875 2686.948828125 1249.6 2683.8 1239.9310546875 2679.5353515625 1244.5 2667.35
M 1165.9 2497.2
Q 1150.725 2496.4931640625 1141.55 2502.65 1132.4216796875 2508.8095703125 1128.55 2518.85 1124.38046875 2572.0875 1125.1 2595.7 1125.818359375 2619.3751953125 1125.15 2635.75 1124.5298828125 2652.112109375 1132.9 2657.9 1160.2283203125 2669.24375 1183.75 2676.8 1207.2765625 2684.349609375 1211.25 2677.85
L 1215.85 2665.25
Q 1218.7556640625 2657.7083984375 1200.75 2651.75
L 1157 2641.05
Q 1146.0927734375 2639.6916015625 1141.65 2630.9 1137.2912109375 2598.67578125 1139.35 2562.6
L 1140.65 2527.25
Q 1143.421875 2517.4208984375 1154.8 2513.15 1164.1572265625 2510.1869140625 1177.3 2511.55 1218.7978515625 2518.8845703125 1257.6 2523.75 1264.9794921875 2524.6880859375 1266.9 2521.4 1271.434765625 2516.7642578125 1261 2512.85 1235.5228515625 2506.9935546875 1209.35 2503.05 1184.4876953125 2498.334765625 1165.9 2497.2
M 1095.6 1998.25
Q 1101.108203125 1995.1634765625 1097.65 1993.05 1094.2404296875 1990.985546875 1045.2 1988.25
L 1032.55 1988.25 1038.55 1996.25
Q 1043.9466796875 1997.861328125 1053.4 1997.4
L 1095.6 1998.25
M 656.65 2123.95
Q 699.1669921875 2116.376171875 721.35 2120.65 736.071875 2123.42265625 755.75 2140.3 807.080078125 2184.5849609375 859.25 2247.85 902.9630859375 2302.2603515625 965.1 2365.55 1005.49375 2406.4798828125 1044.7 2438.9 1057.888671875 2442.427734375 1053.75 2435.9
L 984.2 2370.4
Q 923.3578125 2306.1498046875 858.9 2227.95
L 809.75 2173.9
Q 806.243359375 2171.00625 808.95 2169 825.6685546875 2164.4251953125 841.85 2164.4 889.680078125 2162.2818359375 934.7 2179.5 991.0673828125 2200.9671875 1017.55 2244.2 1048.4916015625 2297.725390625 1105.35 2429.35 1110.8576171875 2442.4662109375 1119.3 2454.75 1128.488671875 2460.404296875 1126.65 2451.45 1117.8400390625 2425.459375 1099.65 2386.8 1067.3025390625 2312.1775390625 1026.1 2233.2 1001.3224609375 2199.5283203125 965.35 2180.45 934.9697265625 2165.1771484375 889.2 2155.9 834.4796875 2151.686328125 795.85 2160.8 768.7455078125 2130.757421875 749.2 2119.05 728.4662109375 2107.744140625 702.5 2106.75 654.6 2107.6447265625 605 2125.9 554.8921875 2144.3330078125 509.3 2167.35 468.693359375 2189.3794921875 440.85 2219.25 423.0580078125 2242.4353515625 427.3 2250.6 427.5248046875 2255.9625 447.65 2271.85
L 795.1 2477.65
Q 933.1654296875 2565.4607421875 1086.35 2645.3 1091.75390625 2648.9931640625 1099.65 2649.4 1113.0375 2649.547265625 1115.5 2642.3 1120.1255859375 2628.64140625 1091.55 2615.4
L 1082.45 2611.15 813.85 2453.9 657.5 2361.4 551.05 2299.15 477.35 2254.95
Q 457.984765625 2240.2181640625 463.05 2225.35 468.1767578125 2210.49375 515.95 2179.4 559.3833984375 2152.7728515625 656.65 2123.95
M 927.7 1974.1
Q 922.48671875 1973.3623046875 926.1 1964.35
L 932.6 1942.15 920.65 1923.7
Q 907.87578125 1949.7693359375 900.6 1979 894.5833984375 1999.1400390625 905.8 2001.25 926.0349609375 2005.3341796875 960.25 2003.35
L 978.1 2002.3 965.1 1982.8 927.7 1974.1
M 1005.45 1846.4
Q 1000.4513671875 1838.5623046875 992.8 1845.05
L 954.85 1871.75 952.4 1875.5 955.95 1881.5
Q 963.65546875 1882.4576171875 967.7 1879.05
L 1005.45 1846.4
M 1197.9 1544.35
Q 1193.9875 1535.47734375 1181.05 1540.05 1160.5931640625 1544.381640625 1134.4 1560.35
L 1120.75 1570.65
Q 1080.23984375 1600.985546875 1060.05 1639.45
L 1029.6 1725.3
Q 1024.2515625 1767.7642578125 1031.3 1824.85
L 1085.05 1910.55
Q 1108.9658203125 1945.59453125 1143.2 1982.85 1218.8521484375 1991.8462890625 1251.55 1990.1 1270.3701171875 1984.062890625 1251.4 1982.8
L 1224.3 1981.5 1145.9 1973.4
Q 1120.2134765625 1940.512109375 1097.9 1906.5
L 1258.3 1762.95 1286.75 1786.7 1289.2 1714.5
Q 1272.2611328125 1730.7546875 1250 1743.55 1207.8494140625 1654.317578125 1150.35 1571.35
L 1197.9 1544.35
M 1150.65 1319.5
Q 1155.9076171875 1326.590625 1175.2 1335.15
L 1208.2 1341.95
Q 1222.469921875 1343.8359375 1218.35 1338.55
L 1181.55 1325.45
Q 1166.0626953125 1321.2044921875 1158.7 1313.25
L 1121.15 1290.7
Q 1112.825 1285.426953125 1104.5 1285.25 1096.533984375 1290.039453125 1111.6 1296.25 1121.8240234375 1300.5349609375 1150.65 1319.5
M 713.65 1368.4
Q 711.237890625 1369.2826171875 713.2 1372.75
L 773.5 1489.25
Q 796.4271484375 1532.860546875 811.25 1575.55 833.3166015625 1643.625 841.15 1711.7 848.3083984375 1775.33203125 864.05 1811.05 875.5783203125 1843.6369140625 916.1 1897.95 986.5212890625 1992.4041015625 1049.6 2089.75 1091.777734375 2155.9484375 1127.2 2191.5 1170.5482421875 2215.09296875 1221.9 2194 1290.8103515625 2162.771484375 1357 2116.2 1392.740234375 2085.4310546875 1423.35 2042.25 1409.107421875 2046.6412109375 1397.95 2047.1 1383.59609375 2047.7728515625 1379.7 2044.65
L 1358.5 2070
Q 1324.8705078125 2106.145703125 1276.35 2130.3
L 1205.1 2168.85
Q 1166.5384765625 2181.9033203125 1143.1 2159.25 1111.93359375 2121.85234375 1087.8 2082.55
L 945.3 1881.45
Q 920.31328125 1853.278125 898.4 1806.05 886.5818359375 1779.30390625 877.85 1737.6 872.9900390625 1661.155078125 843.9 1575.55 831.542578125 1533.676171875 810.5 1489.35
L 787.9 1441.8 758.45 1384.9
Q 750.775 1368.0376953125 745.95 1362.2
L 713.65 1368.4
M 892.9 1293.1
L 922.1 1329.7 958.5 1370.75
Q 993.962109375 1413.4560546875 1041.25 1447.95 1078.793359375 1471.43125 1129.05 1487.4 1166.12734375 1505.425 1187.15 1527.9
L 1213.45 1517.65 1200.8 1504.8
Q 1179.730078125 1479.8599609375 1142.65 1466.65 1105.6234375 1453.4427734375 1043.95 1415.5 1009.846484375 1391.078515625 982.3 1360.1
L 903.05 1273.9 890.6 1282.9
Q 888.748828125 1287.9466796875 892.9 1293.1
M 936.7 1280.1
Q 925.5255859375 1279.503515625 923.5 1282.8
L 934 1291.95
Q 974.9130859375 1294.8001953125 1020 1291.95 1054.284375 1287.1490234375 1105 1269.3 1133.061328125 1252.68984375 1132.45 1241.9 1135.33515625 1228.6998046875 1126.05 1236.7 1116.512890625 1247.11953125 1103.35 1253.05 1062.0681640625 1271.4056640625 1040.7 1274.35 1022.272265625 1280.365234375 992.25 1281.15
L 936.7 1280.1
M 897.75 1259.1
Q 903.210546875 1253.519140625 901.25 1250.35
L 888.15 1237.15
Q 872.834375 1220.134375 830.3 1195.4 814.7484375 1192.91328125 804.6 1201.85
L 746 1241.1
Q 685.826953125 1271.5896484375 682 1277.85 672.5884765625 1290.85078125 675.4 1303.75
L 684.15 1344.25
Q 688.646484375 1364.545703125 696.55 1363.6 704.6521484375 1363.5115234375 717.9 1360.85 751.8369140625 1355.660546875 774 1345.65 778.51171875 1343.626171875 777.2 1339.55 775.894921875 1335.5267578125 761.95 1338.55 748.01171875 1341.5705078125 720.3 1348.55 716.3291015625 1348.8697265625 713.6 1340.5
L 699.85 1298.45
Q 699.6953125 1293.5787109375 703.9 1289.5 731.71171875 1274.268359375 765.15 1254.6 793.451171875 1231.8703125 822.3 1221.1 856.9138671875 1243.4095703125 874.75 1263.4 868.6484375 1271.645703125 859.2 1281.05 855.945703125 1283.9130859375 855.45 1288.55 860.55 1294.269140625 865.65 1291.25
L 897.75 1259.1
M 1227.45 933.6
Q 1187.1501953125 858.5279296875 1146.85 844.5 1108.9205078125 820.9130859375 1011.65 817.6 930.250390625 829.6052734375 898.2 864.55 867.2701171875 899.176953125 845.35 954.25 823.41796875 1009.33515625 860.25 1068.4 882.77578125 1097.1845703125 968.15 1142.6 1030.853515625 1156.8755859375 1084.55 1154.55 1171.078515625 1145.1513671875 1205.25 1092.7 1257.703125 1027.97109375 1227.45 933.6
M 1139.7 853.85
Q 1177.35 866.95 1215 937.1 1243.25 1025.25 1194.25 1085.75 1162.35 1134.75 1081.45 1143.55 1031.3 1145.7 972.7 1132.35 892.95 1089.95 871.9 1063.05 837.45 1007.85 857.95 956.35 878.45 904.95 907.35 872.55 937.3 839.9 1013.35 828.7 1104.25 831.8 1139.7 853.85
M 1174.65 968.7
Q 1168.7154296875 947.81640625 1147.2 940.35 1127.7494140625 937.78671875 1117.4 944.7 1091.3013671875 958.33671875 1099.65 990.45 1108.931640625 1008.7078125 1125.1 1014.65 1147.3396484375 1019.35234375 1163.95 1008.25 1180.24765625 988.416796875 1174.65 968.7
M 627.25 1329.35
Q 624.111328125 1327.99765625 622.5 1329.7
L 619.75 1377
Q 616.4673828125 1407.275 606.8 1433.8 594.983984375 1458.4630859375 578.25 1478.7
L 540.35 1514.75
Q 534.95 1524.915625 538.15 1532.1 541.8919921875 1541.271484375 549.35 1544.7 577.745703125 1549.9681640625 590.1 1550.15 602.4552734375 1550.3330078125 612.45 1546.15 632.894921875 1533.1529296875 640.25 1521.65 655.2421875 1502.7775390625 665 1483.1
L 690.5 1431.4
Q 693.573046875 1424.1279296875 690.2 1424.25 686.1990234375 1422.9591796875 682.7 1429.7
L 659.15 1477.65
Q 649.0111328125 1498.312890625 633.3 1517.25 620.851953125 1530.412109375 605.8 1539.25 595.1 1541.3515625 584.4 1540.6 568.44453125 1540.2771484375 553.45 1535.15 550.308984375 1532.6091796875 548.2 1526.8 548.18671875 1521.5134765625 554.8 1514.05 570.6384765625 1502.073828125 584.75 1486.5 603.4357421875 1465.4884765625 617.75 1437.85 624.2 1426.510546875 629.9 1381.3 631.3861328125 1356.6310546875 630.65 1333.45 630.2048828125 1330.3125 627.25 1329.35
M 791 733.55
L 803.75 732.5
Q 848.484765625 731.4728515625 884.6 741 915.8787109375 752.8064453125 936.9 771.7
L 948.45 766.25
Q 926.778515625 747.0869140625 892.05 733.55 868.2765625 723.92109375 815.55 721.95 762.812890625 720.0318359375 712.75 749.2 664.15078125 782.23125 636.1 824.5 606.7171875 875.55703125 605.1 925.95 603.475 976.3328125 650.85 1028.55
L 656.75 1016.95
Q 616.6990234375 964.498828125 616.9 930.05 617.815234375 877.8388671875 646.3 832 675.81875 786.7537109375 715.55 762.55
L 735.15 750.6 745.8 745.2
Q 739.4853515625 753.6697265625 744.85 762.1 751.68046875 772.8375 769.2 772.95 786.3181640625 774.75703125 798.95 770.25 810.27890625 765.658984375 812.3 756 814.3630859375 746.3875 808 739.4 804.807421875 735.501953125 791 733.55
M 817.75 520.6
Q 826.6 525.9 825.7 508.8 873.45 515.8 917.15 511.15 960.8 506.5 932.35 501 870.2 503.3 805.6 493.05 784.35 480 777.05 468.25 769.8 456.45 756.35 445.4 742.9 434.3 739.7 434 736.5 433.7 733.55 436.9 730.6 440.05 730.3 446.7 729.95 453.3 729.8 454.95 729.65 456.6 730.45 472.7 731.2 488.75 735.2 539.2
L 738.3 544.3
Q 812.1 600.1 884.65 679.95 974.5 686.5 1038.2 709.5 1056.15 714.2 1049.95 704.35 974.8 673.5 889.4 670.05 871.45 648 841.45 618.7 811.45 589.4 762.35 532.4 744.4 500.75 753.35 475.95 753.3 471.75 767.55 481.7 781.8 491.65 788.4 497.7 794.95 503.7 798.3 504.65 801.6 505.6 807.85 511.05
L 817.75 520.6
M 1688.4 1342.05
Q 1678.328125 1345.393359375 1677.65 1349.3 1675.279296875 1356.0373046875 1706.55 1349.3
L 1991 1285.65 2075.65 1271.65
Q 2089.051171875 1269.1361328125 2092.1 1276.7
L 2137.15 1415.35
Q 2178.8705078125 1564.2525390625 2177.85 1773.75 2177.209765625 1805.016796875 2164.4 1815.95 2148.7185546875 1828.8369140625 2123.15 1826.8
L 1947.6 1788.1 1774.8 1748.6
Q 1735.8982421875 1739.68515625 1729 1743.2 1719.7107421875 1747.825 1745.25 1754.55
L 1949.15 1801 2122.6 1843.3
Q 2144.4361328125 1848.4107421875 2163.9 1840.2 2182.548828125 1833.412890625 2193.7 1820.55 2204.8400390625 1807.7453125 2207.8 1761.75 2207.611328125 1681.475 2200.35 1598.6 2194.5873046875 1533.1267578125 2183.5 1476.8 2175.428515625 1429.79921875 2161.85 1389.05
L 2133.9 1301.05
Q 2126.49453125 1279.4419921875 2118.2 1262.95 2111.457421875 1255.7458984375 2101.15 1255.65 2085.853125 1255.3267578125 2075.35 1257.6 1995.47578125 1271.8369140625 1919.9 1289.2
L 1688.4 1342.05
M 1307.7 1325.45
Q 1312.1990234375 1321.0123046875 1318.05 1323.25 1388.5126953125 1343.5232421875 1437.4 1368.35 1478.0796875 1390.1521484375 1515.05 1420.3 1517.855078125 1422.63203125 1516.7 1429.1
L 1509.6 1459.5
Q 1509.3064453125 1471.673046875 1518.8 1469.05
L 1530.05 1420.85
Q 1506.173828125 1391.0751953125 1443.35 1356.65 1389.6505859375 1330.4427734375 1313.85 1310.25 1303.548828125 1308.7697265625 1298.85 1318.1 1282.9140625 1346.7248046875 1268.35 1393.55 1265.74375 1408.4123046875 1260.1 1418.15 1229.1005859375 1442.944921875 1198.45 1456.75 1189.534375 1461.749609375 1190.95 1468.15 1196.0296875 1476.6275390625 1210.7 1471.45
L 1271.6 1444.3
Q 1294.144140625 1435.3041015625 1327.1 1443.2 1446.333203125 1472.160546875 1606.4 1555.75 1631.6236328125 1568.146875 1638.85 1582.9
L 1669.85 1666.8
Q 1678.443359375 1695.0486328125 1666.45 1719.65 1640.0794921875 1808.6400390625 1602.8 1887.3 1590.1630859375 1912.6431640625 1575.05 1920.5 1495.8537109375 1966.177734375 1412.2 2000.3 1390.068359375 2005.425390625 1365.45 1991.35 1340.8361328125 1977.278125 1318.45 1958.35 1313.3578125 1954.6880859375 1314.35 1941.9
L 1317.25 1877.2
Q 1320.7515625 1798.44921875 1323.4 1722.3
L 1323.05 1674.15
Q 1317.246875 1637.8572265625 1293.8 1601.4
L 1293.15 1592.8
Q 1288.105859375 1571.0609375 1287.1 1556.65 1286.299609375 1545.6064453125 1281.3 1552.05 1276.31171875 1558.4873046875 1281.2 1585.45 1267.3189453125 1554.7783203125 1253.75 1535.15 1241.106640625 1516.816796875 1247.2 1506.65
L 1256.05 1491.95
Q 1257.3837890625 1489.125 1255.15 1486.25 1249.375 1483.384765625 1243.6 1487.9
L 1232.9 1506.8
Q 1227.334765625 1515.5798828125 1232.9 1525.95 1273.277734375 1590.09375 1288.05 1625.8 1302.869140625 1661.55625 1299.3 1669.5 1292.2626953125 1812.839453125 1281.2 1955.25 1279.8115234375 1976.6634765625 1309.4 1991.25
L 1369.45 2024.15
Q 1385.771484375 2033.5146484375 1411.95 2024.7 1503.4271484375 1994.0029296875 1597.3 1936.15 1613.4390625 1928.37890625 1625.25 1909 1666.5701171875 1824.207421875 1699.25 1724.25 1706.6244140625 1709.2744140625 1707.8 1688.7 1709.8326171875 1662.0814453125 1671.6 1573.9 1666.2111328125 1556.83671875 1650.75 1546.65 1593.566796875 1517.830859375 1522.95 1487.4 1411.317578125 1432.4763671875 1298.4 1408.65
L 1281.5 1407.15
Q 1277.2373046875 1406.15078125 1281.5 1395.3
L 1307.7 1325.45
M 1633.75 877.75
Q 1640.7955078125 870.84765625 1655.15 876.8 1695.871484375 898.707421875 1740.75 926.85 1786.691015625 960.4119140625 1822.8 990.1 1866.67890625 1022.1177734375 1901.05 1056 1935.9822265625 1086.948828125 1976.55 1132.65 2010.937109375 1169.1109375 2031.05 1198.65 2048.6078125 1224.5392578125 2059.5 1249.15 2064.453515625 1251.324609375 2076.1 1248.35 2087.7943359375 1245.3828125 2086 1240.65
L 2081 1227.6
Q 2065.8455078125 1198.8775390625 2044.6 1173.2
L 1984.05 1101.35 1915.25 1029.5
Q 1885.1548828125 996.499609375 1846 965.6 1805.2353515625 933.4341796875 1758.75 901.7
L 1674.9 854.75
Q 1662.2451171875 851.0529296875 1655.3 852.2 1648.3638671875 853.353125 1644.55 855 1631.83984375 861.4396484375 1626.55 867.5
L 1602.2 894.5 1548.85 956.6 1491.9 1021.25 1466.25 1054.1
Q 1464.12109375 1057.723828125 1469.3 1057.2
L 1633.75 877.75
M 1321.1 405.1
L 1321.1 412.9
Q 1318.35 438.35 1312.9 469.05
L 1290.55 603.65
Q 1281 652.6 1272.45 701.1 1278.25 708.35 1284.35 699.8
L 1315.25 562.55
Q 1330.65 483.85 1342.15 404.3 1343.6 383.7 1323.9 356.3 1304.15 328.85 1260.75 273.2 1217 221.15 1167.55 173.35 1159.75 165.75 1152.85 162.7 1129.7 156.55 1100.7 149.5 986.8 129.8 941.65 138 896.4 146.15 894.8 169.4 892.45 210 899.45 251.6 904 271.4 924.55 295.85 941 317.65 963.25 338.45 972.1 346.7 972.95 358
L 971.9 414.55 966.25 534.8 961.6 589.05
Q 964.1 597.65 970.65 591.8 974.4 577.55 976.9 553.9 980.55 503.1 988.65 455.05
L 996.1 365.7
Q 998.3 348.5 984.45 334.45
L 945.2 293.75
Q 929.35 272.15 922.6 252.65 919.3 240.95 916.95 212.55 917.55 190.25 928.75 183.8 936.2 178.65 965.9 176.5 973.7 175.15 1056.35 179.1 1089.7 179.7 1154.35 193.25 1172 204.65 1203.3 237.2 1234.55 269.75 1269 318.45 1299.8 358.3 1317.8 391.65 1321.05 399.25 1321.1 405.1 Z"/>
</svg>
